<svg width="743" height="181" viewBox="0 0 743 181" fill="none" xmlns="http://www.w3.org/2000/svg">
<g clip-path="url(#clip0_33_100)">
<path d="M89.5884 7.7962L85.7951 9.69282L79.1569 49.048L86.2693 9.92988L90.0625 7.55908L154.785 13.9602L170.669 55.3306M205.528 55.7291C213.91 14.4896 214.245 14.8249 214.245 14.8249L281.301 20.8599L295.718 60.7583H302.759L310.806 29.5772L380.209 31.5889L389.262 65.7875L399.32 65.4523L404.349 40.9768C429.272 43.3238 450.842 42.9885 473.082 37.9593L486.828 71.4873H493.199L498.228 41.6474C527.064 42.4892 544.821 38.586 565.955 35.9476L582.383 76.5165H590.095L594.118 48.6883C618.888 51.2665 634.155 49.8035 664.192 43.6591L678.274 80.8752L205.528 55.7291ZM27.9478 44.7805C27.9478 44.7805 24.6287 45.9659 23.4433 49.5221C22.2579 53.0783 7.55896 155.734 7.55896 155.734L12.7747 159.764L27.4736 161.898L30.0815 167.113L33.6377 169.484L56.1602 170.907L704.335 172.566L711.21 171.381L715.003 164.506L727.332 162.846L731.125 161.424L734.444 158.816L732.073 88.8773L730.414 84.6098L54.6516 49.3588L39.2287 46.6765L27.9478 44.7805Z" stroke="#7FFF00" stroke-width="15.1181" stroke-linejoin="round"/>
<path d="M92.1962 8.22073L88.403 10.1174L81.7647 49.4725L88.8771 10.3544L92.6704 7.98364L157.393 14.3848L173.277 55.7551M208.136 56.1537C216.518 14.9142 216.853 15.2494 216.853 15.2494L283.909 21.2845L298.326 61.1829H305.367L313.414 30.0018L382.817 32.0135L391.87 66.2121L401.928 65.8768L406.957 41.4013C431.88 43.7483 453.449 43.4131 475.69 38.3838L489.436 71.9119H495.807L500.836 42.0719C529.671 42.9138 547.429 39.0105 568.562 36.3722L584.991 76.9411H592.703L596.726 49.1128C621.496 51.691 636.762 50.228 666.8 44.0836L680.881 81.2997L208.136 56.1537ZM30.5556 45.2051C30.5556 45.2051 27.2365 46.3905 26.0511 49.9466C24.8657 53.5028 10.1668 156.158 10.1668 156.158L15.3826 160.188L30.0815 162.322L32.6893 167.538L36.2455 169.909L58.7681 171.331L706.943 172.991L713.818 171.805L717.611 164.93L729.939 163.27L733.733 161.848L737.052 159.24L734.681 89.3018L733.021 85.0344L57.2594 49.7833L41.8365 47.1011L30.5556 45.2051Z" stroke="white" stroke-width="3.40157"/>
<path d="M37.611 59.1549C22.8586 146.998 22.8586 146.998 22.8586 146.998L42.9755 155.045L701.467 160.41L718.901 148.34L716.89 98.0475L55.0456 64.5194L37.611 59.1549Z" stroke="#FF6600" stroke-width="2.64567" stroke-linejoin="round" stroke-dasharray="5.29 2.65"/>
<path d="M264.079 163.469C145.942 163.129 46.3838 162.51 42.838 162.095C37.0707 161.419 36.2449 161.057 35.0045 158.659C33.2079 155.184 31.6754 154.441 23.8046 153.225C20.222 152.671 17.0776 152.005 16.8171 151.745C16.1126 151.04 30.1329 54.795 31.0776 53.8503C31.306 53.6219 36.3116 54.3028 42.2013 55.3633C51.0961 56.9649 108.418 60.1774 380.638 74.3302C560.888 83.7015 711.833 91.6312 716.072 91.9518L723.78 92.5348L724.354 100.757C724.671 105.279 725.21 119.293 725.552 131.898L726.175 154.817L721.538 155.456C712.19 156.743 709.763 157.752 707.734 161.191L705.807 164.456L592.34 164.272C529.933 164.171 382.215 163.81 264.079 163.469ZM691.77 160.663C691.77 159.188 691.138 158.766 688.925 158.766C687.09 158.766 686.08 159.248 686.08 160.123C686.08 161.293 686.909 161.677 691.058 162.43C691.45 162.501 691.77 161.706 691.77 160.663ZM700.129 160.426C700.381 159.096 699.77 158.766 697.055 158.766C694.264 158.766 693.666 159.111 693.666 160.723C693.666 162.358 694.171 162.631 696.741 162.382C698.765 162.187 699.922 161.519 700.129 160.426ZM580.817 159.714C580.817 158.255 580.184 157.818 578.073 157.818C576.564 157.818 575.1 158.416 574.819 159.148C574.118 160.974 574.974 161.611 578.13 161.611C580.184 161.611 580.817 161.165 580.817 159.714ZM588.403 159.714C588.403 158.239 587.771 157.818 585.558 157.818C583.346 157.818 582.713 158.239 582.713 159.714C582.713 161.19 583.346 161.611 585.558 161.611C587.771 161.611 588.403 161.19 588.403 159.714ZM596.938 159.714C596.938 158.179 596.306 157.818 593.619 157.818C590.932 157.818 590.3 158.179 590.3 159.714C590.3 161.25 590.932 161.611 593.619 161.611C596.306 161.611 596.938 161.25 596.938 159.714ZM604.525 159.714C604.525 158.239 603.892 157.818 601.68 157.818C599.467 157.818 598.835 158.239 598.835 159.714C598.835 161.19 599.467 161.611 601.68 161.611C603.892 161.611 604.525 161.19 604.525 159.714ZM612.884 159.477C613.136 158.148 612.525 157.818 609.81 157.818C607.019 157.818 606.421 158.163 606.421 159.775C606.421 161.41 606.926 161.682 609.495 161.434C611.52 161.238 612.677 160.57 612.884 159.477ZM620.646 159.714C620.646 158.179 620.014 157.818 617.327 157.818C614.64 157.818 614.008 158.179 614.008 159.714C614.008 161.25 614.64 161.611 617.327 161.611C620.014 161.611 620.646 161.25 620.646 159.714ZM628.232 159.714C628.232 158.239 627.6 157.818 625.388 157.818C623.175 157.818 622.543 158.239 622.543 159.714C622.543 161.19 623.175 161.611 625.388 161.611C627.6 161.611 628.232 161.19 628.232 159.714ZM636.767 159.714C636.767 158.179 636.135 157.818 633.448 157.818C630.761 157.818 630.129 158.179 630.129 159.714C630.129 161.25 630.761 161.611 633.448 161.611C636.135 161.611 636.767 161.25 636.767 159.714ZM644.354 159.654C644.354 158.019 643.849 157.746 641.28 157.995C639.255 158.191 638.098 158.859 637.891 159.952C637.639 161.281 638.25 161.611 640.965 161.611C643.756 161.611 644.354 161.266 644.354 159.654ZM651.94 159.714C651.94 158.239 651.308 157.818 649.095 157.818C646.883 157.818 646.25 158.239 646.25 159.714C646.25 161.19 646.883 161.611 649.095 161.611C651.308 161.611 651.94 161.19 651.94 159.714ZM660.475 160.29C660.475 158.84 658.483 157.818 655.656 157.818C654.469 157.818 653.837 158.477 653.837 159.714C653.837 161.25 654.469 161.611 657.156 161.611C659.361 161.611 660.475 161.168 660.475 160.29ZM668.062 160.189C668.062 159.24 667.114 158.766 665.217 158.766C663.32 158.766 662.372 159.24 662.372 160.189C662.372 161.137 663.32 161.611 665.217 161.611C667.114 161.611 668.062 161.137 668.062 160.189ZM675.648 160.189C675.648 159.24 674.7 158.766 672.803 158.766C670.907 158.766 669.958 159.24 669.958 160.189C669.958 161.137 670.907 161.611 672.803 161.611C674.7 161.611 675.648 161.137 675.648 160.189ZM684.183 160.189C684.183 159.195 683.182 158.766 680.864 158.766C678.546 158.766 677.545 159.195 677.545 160.189C677.545 161.182 678.546 161.611 680.864 161.611C683.182 161.611 684.183 161.182 684.183 160.189ZM705.528 159.878C708.586 157.473 707.208 155.064 703.692 156.666C701.352 157.732 700.551 159.644 701.885 160.979C702.795 161.889 703.081 161.802 705.528 159.878ZM462.1 158.529C462.353 157.199 461.743 156.869 459.027 156.869C456.736 156.869 455.639 157.305 455.639 158.213C455.639 161 461.573 161.29 462.1 158.529ZM469.864 158.766C469.864 157.231 469.231 156.869 466.544 156.869C464.411 156.869 463.225 157.321 463.225 158.134C463.225 160.034 464.208 160.663 467.177 160.663C469.231 160.663 469.864 160.216 469.864 158.766ZM477.45 158.766C477.45 157.291 476.818 156.869 474.605 156.869C472.392 156.869 471.76 157.291 471.76 158.766C471.76 160.241 472.392 160.663 474.605 160.663C476.818 160.663 477.45 160.241 477.45 158.766ZM485.985 158.766C485.985 157.231 485.353 156.869 482.666 156.869C479.979 156.869 479.347 157.231 479.347 158.766C479.347 160.301 479.979 160.663 482.666 160.663C485.353 160.663 485.985 160.301 485.985 158.766ZM493.571 158.766C493.571 157.231 492.939 156.869 490.252 156.869C487.565 156.869 486.933 157.231 486.933 158.766C486.933 160.301 487.565 160.663 490.252 160.663C492.939 160.663 493.571 160.301 493.571 158.766ZM501.158 158.766C501.158 157.291 500.526 156.869 498.313 156.869C496.1 156.869 495.468 157.291 495.468 158.766C495.468 160.241 496.1 160.663 498.313 160.663C500.526 160.663 501.158 160.241 501.158 158.766ZM509.693 158.766C509.693 157.231 509.061 156.869 506.374 156.869C503.687 156.869 503.055 157.231 503.055 158.766C503.055 160.301 503.687 160.663 506.374 160.663C509.061 160.663 509.693 160.301 509.693 158.766ZM517.279 158.766C517.279 157.291 516.647 156.869 514.434 156.869C512.222 156.869 511.589 157.291 511.589 158.766C511.589 160.241 512.222 160.663 514.434 160.663C516.647 160.663 517.279 160.241 517.279 158.766ZM524.866 158.766C524.866 157.291 524.234 156.869 522.021 156.869C519.808 156.869 519.176 157.291 519.176 158.766C519.176 160.241 519.808 160.663 522.021 160.663C524.234 160.663 524.866 160.241 524.866 158.766ZM533.401 158.766C533.401 157.231 532.769 156.869 530.082 156.869C527.395 156.869 526.763 157.231 526.763 158.766C526.763 160.301 527.395 160.663 530.082 160.663C532.769 160.663 533.401 160.301 533.401 158.766ZM540.987 158.766C540.987 157.291 540.355 156.869 538.142 156.869C535.93 156.869 535.297 157.291 535.297 158.766C535.297 160.241 535.93 160.663 538.142 160.663C540.355 160.663 540.987 160.241 540.987 158.766ZM549.522 159.24C549.522 158.247 548.521 157.818 546.203 157.818C543.885 157.818 542.884 158.247 542.884 159.24C542.884 160.234 543.885 160.663 546.203 160.663C548.521 160.663 549.522 160.234 549.522 159.24ZM557.109 159.24C557.109 158.247 556.108 157.818 553.79 157.818C551.471 157.818 550.47 158.247 550.47 159.24C550.47 160.234 551.471 160.663 553.79 160.663C556.108 160.663 557.109 160.234 557.109 159.24ZM564.695 159.24C564.695 158.292 563.747 157.818 561.85 157.818C559.954 157.818 559.005 158.292 559.005 159.24C559.005 160.189 559.954 160.663 561.85 160.663C563.747 160.663 564.695 160.189 564.695 159.24ZM573.23 159.24C573.23 158.247 572.229 157.818 569.911 157.818C567.593 157.818 566.592 158.247 566.592 159.24C566.592 160.234 567.593 160.663 569.911 160.663C572.229 160.663 573.23 160.234 573.23 159.24ZM342.789 157.818C342.789 156.282 342.157 155.921 339.47 155.921C335.409 155.921 334.833 158.441 338.759 159.035C340.193 159.252 341.687 159.494 342.078 159.572C342.469 159.651 342.789 158.861 342.789 157.818ZM350.376 157.818C350.376 156.343 349.743 155.921 347.531 155.921C345.318 155.921 344.686 156.343 344.686 157.818C344.686 159.293 345.318 159.714 347.531 159.714C349.743 159.714 350.376 159.293 350.376 157.818ZM358.91 157.818C358.91 156.282 358.278 155.921 355.591 155.921C352.904 155.921 352.272 156.282 352.272 157.818C352.272 159.353 352.904 159.714 355.591 159.714C358.278 159.714 358.91 159.353 358.91 157.818ZM366.497 157.818C366.497 156.343 365.865 155.921 363.652 155.921C361.439 155.921 360.807 156.343 360.807 157.818C360.807 159.293 361.439 159.714 363.652 159.714C365.865 159.714 366.497 159.293 366.497 157.818ZM374.083 157.818C374.083 156.343 373.451 155.921 371.239 155.921C369.026 155.921 368.394 156.343 368.394 157.818C368.394 159.293 369.026 159.714 371.239 159.714C373.451 159.714 374.083 159.293 374.083 157.818ZM382.618 157.818C382.618 156.282 381.986 155.921 379.299 155.921C376.612 155.921 375.98 156.282 375.98 157.818C375.98 159.353 376.612 159.714 379.299 159.714C381.986 159.714 382.618 159.353 382.618 157.818ZM390.205 157.818C390.205 156.343 389.573 155.921 387.36 155.921C385.147 155.921 384.515 156.343 384.515 157.818C384.515 159.293 385.147 159.714 387.36 159.714C389.573 159.714 390.205 159.293 390.205 157.818ZM398.74 157.818C398.74 156.282 398.108 155.921 395.421 155.921C392.734 155.921 392.102 156.282 392.102 157.818C392.102 159.353 392.734 159.714 395.421 159.714C398.108 159.714 398.74 159.353 398.74 157.818ZM406.326 157.818C406.326 156.282 405.694 155.921 403.007 155.921C400.32 155.921 399.688 156.282 399.688 157.818C399.688 159.353 400.32 159.714 403.007 159.714C405.694 159.714 406.326 159.353 406.326 157.818ZM413.913 157.818C413.913 156.343 413.281 155.921 411.068 155.921C408.855 155.921 408.223 156.343 408.223 157.818C408.223 159.293 408.855 159.714 411.068 159.714C413.281 159.714 413.913 159.293 413.913 157.818ZM422.272 158.055C422.065 156.962 420.908 156.294 418.884 156.098C416.314 155.85 415.809 156.122 415.809 157.758C415.809 159.369 416.407 159.714 419.198 159.714C421.913 159.714 422.524 159.384 422.272 158.055ZM430.034 158.292C430.034 157.407 429.139 156.869 427.663 156.869C426.359 156.869 424.973 156.847 424.581 156.819C424.19 156.792 423.732 157.432 423.564 158.242C423.332 159.356 424.083 159.714 426.646 159.714C429.026 159.714 430.034 159.291 430.034 158.292ZM437.621 158.292C437.621 157.344 436.672 156.869 434.776 156.869C432.879 156.869 431.931 157.344 431.931 158.292C431.931 159.24 432.879 159.714 434.776 159.714C436.672 159.714 437.621 159.24 437.621 158.292ZM446.156 158.292C446.156 157.299 445.155 156.869 442.836 156.869C440.518 156.869 439.517 157.299 439.517 158.292C439.517 159.285 440.518 159.714 442.836 159.714C445.155 159.714 446.156 159.285 446.156 158.292ZM453.742 158.292C453.742 157.344 452.794 156.869 450.897 156.869C449.001 156.869 448.052 157.344 448.052 158.292C448.052 159.24 449.001 159.714 450.897 159.714C452.794 159.714 453.742 159.24 453.742 158.292ZM231.836 156.869C231.836 155.334 231.204 154.973 228.517 154.973C225.83 154.973 225.198 155.334 225.198 156.869C225.198 158.405 225.83 158.766 228.517 158.766C231.204 158.766 231.836 158.405 231.836 156.869ZM239.422 156.869C239.422 155.394 238.79 154.973 236.578 154.973C234.365 154.973 233.733 155.394 233.733 156.869C233.733 158.345 234.365 158.766 236.578 158.766C238.79 158.766 239.422 158.345 239.422 156.869ZM247.782 156.632C248.034 155.303 247.423 154.973 244.708 154.973C241.917 154.973 241.319 155.318 241.319 156.93C241.319 158.565 241.824 158.837 244.393 158.589C246.418 158.393 247.575 157.725 247.782 156.632ZM255.544 156.869C255.544 155.334 254.912 154.973 252.225 154.973C249.538 154.973 248.906 155.334 248.906 156.869C248.906 158.405 249.538 158.766 252.225 158.766C254.912 158.766 255.544 158.405 255.544 156.869ZM263.13 156.869C263.13 155.394 262.498 154.973 260.285 154.973C258.073 154.973 257.441 155.394 257.441 156.869C257.441 158.345 258.073 158.766 260.285 158.766C262.498 158.766 263.13 158.345 263.13 156.869ZM271.665 156.869C271.665 155.334 271.033 154.973 268.346 154.973C265.659 154.973 265.027 155.334 265.027 156.869C265.027 158.405 265.659 158.766 268.346 158.766C271.033 158.766 271.665 158.405 271.665 156.869ZM279.252 156.809C279.252 155.174 278.747 154.901 276.178 155.15C274.153 155.346 272.996 156.014 272.789 157.107C272.537 158.436 273.148 158.766 275.863 158.766C278.654 158.766 279.252 158.421 279.252 156.809ZM286.838 156.869C286.838 155.394 286.206 154.973 283.993 154.973C281.781 154.973 281.148 155.394 281.148 156.869C281.148 158.345 281.781 158.766 283.993 158.766C286.206 158.766 286.838 158.345 286.838 156.869ZM295.373 156.869C295.373 155.334 294.741 154.973 292.054 154.973C289.367 154.973 288.735 155.334 288.735 156.869C288.735 158.405 289.367 158.766 292.054 158.766C294.741 158.766 295.373 158.405 295.373 156.869ZM302.96 156.869C302.96 155.394 302.328 154.973 300.115 154.973C297.902 154.973 297.27 155.394 297.27 156.869C297.27 158.345 297.902 158.766 300.115 158.766C302.328 158.766 302.96 158.345 302.96 156.869ZM310.859 157.422C311.408 155.992 309.666 154.973 306.675 154.973C305.489 154.973 304.856 155.632 304.856 156.869C304.856 158.329 305.489 158.766 307.6 158.766C309.109 158.766 310.575 158.161 310.859 157.422ZM319.081 157.344C319.081 156.35 318.08 155.921 315.762 155.921C313.444 155.921 312.443 156.35 312.443 157.344C312.443 158.337 313.444 158.766 315.762 158.766C318.08 158.766 319.081 158.337 319.081 157.344ZM326.668 157.344C326.668 156.395 325.719 155.921 323.823 155.921C321.926 155.921 320.978 156.395 320.978 157.344C320.978 158.292 321.926 158.766 323.823 158.766C325.719 158.766 326.668 158.292 326.668 157.344ZM335.202 157.344C335.202 156.35 334.202 155.921 331.883 155.921C329.565 155.921 328.564 156.35 328.564 157.344C328.564 158.337 329.565 158.766 331.883 158.766C334.202 158.766 335.202 158.337 335.202 157.344ZM112.348 155.921C112.348 154.446 111.716 154.025 109.503 154.025C104.848 154.025 105.965 157.53 110.688 157.743C111.741 157.79 112.348 157.124 112.348 155.921ZM120.883 155.921C120.883 154.386 120.251 154.025 117.564 154.025C114.877 154.025 114.245 154.386 114.245 155.921C114.245 157.457 114.877 157.818 117.564 157.818C120.251 157.818 120.883 157.457 120.883 155.921ZM128.469 155.921C128.469 154.386 127.837 154.025 125.15 154.025C123.017 154.025 121.831 154.476 121.831 155.289C121.831 157.189 122.813 157.818 125.782 157.818C127.837 157.818 128.469 157.371 128.469 155.921ZM136.056 155.921C136.056 154.446 135.424 154.025 133.211 154.025C130.998 154.025 130.366 154.446 130.366 155.921C130.366 157.396 130.998 157.818 133.211 157.818C135.424 157.818 136.056 157.396 136.056 155.921ZM144.591 155.921C144.591 154.386 143.959 154.025 141.272 154.025C138.585 154.025 137.953 154.386 137.953 155.921C137.953 157.457 138.585 157.818 141.272 157.818C143.959 157.818 144.591 157.457 144.591 155.921ZM152.177 155.921C152.177 154.446 151.545 154.025 149.332 154.025C147.12 154.025 146.487 154.446 146.487 155.921C146.487 157.396 147.12 157.818 149.332 157.818C151.545 157.818 152.177 157.396 152.177 155.921ZM159.764 155.921C159.764 154.446 159.132 154.025 156.919 154.025C154.706 154.025 154.074 154.446 154.074 155.921C154.074 157.396 154.706 157.818 156.919 157.818C159.132 157.818 159.764 157.396 159.764 155.921ZM168.299 155.921C168.299 154.386 167.666 154.025 164.98 154.025C162.293 154.025 161.66 154.386 161.66 155.921C161.66 157.457 162.293 157.818 164.98 157.818C167.666 157.818 168.299 157.457 168.299 155.921ZM175.885 155.921C175.885 154.446 175.253 154.025 173.04 154.025C170.828 154.025 170.195 154.446 170.195 155.921C170.195 157.396 170.828 157.818 173.04 157.818C175.253 157.818 175.885 157.396 175.885 155.921ZM184.42 155.921C184.42 154.386 183.788 154.025 181.101 154.025C178.414 154.025 177.782 154.386 177.782 155.921C177.782 157.457 178.414 157.818 181.101 157.818C183.788 157.818 184.42 157.457 184.42 155.921ZM192.007 155.861C192.007 154.226 191.502 153.953 188.932 154.202C186.908 154.397 185.751 155.065 185.544 156.158C185.292 157.488 185.903 157.818 188.618 157.818C191.409 157.818 192.007 157.473 192.007 155.861ZM199.593 156.395C199.593 155.447 198.645 154.973 196.748 154.973C194.852 154.973 193.903 155.447 193.903 156.395C193.903 157.344 194.852 157.818 196.748 157.818C198.645 157.818 199.593 157.344 199.593 156.395ZM208.128 156.395C208.128 155.402 207.127 154.973 204.809 154.973C202.491 154.973 201.49 155.402 201.49 156.395C201.49 157.389 202.491 157.818 204.809 157.818C207.127 157.818 208.128 157.389 208.128 156.395ZM215.715 156.395C215.715 155.447 214.766 154.973 212.87 154.973C210.973 154.973 210.025 155.447 210.025 156.395C210.025 157.344 210.973 157.818 212.87 157.818C214.766 157.818 215.715 157.344 215.715 156.395ZM223.301 156.395C223.301 155.447 222.353 154.973 220.456 154.973C218.559 154.973 217.611 155.447 217.611 156.395C217.611 157.344 218.559 157.818 220.456 157.818C222.353 157.818 223.301 157.344 223.301 156.395ZM48.8107 154.973C48.8107 153.498 48.1785 153.076 45.9658 153.076C43.753 153.076 43.1208 153.498 43.1208 154.973C43.1208 156.448 43.753 156.869 45.9658 156.869C48.1785 156.869 48.8107 156.448 48.8107 154.973ZM57.3456 154.973C57.3456 153.437 56.7134 153.076 54.0265 153.076C51.3396 153.076 50.7074 153.437 50.7074 154.973C50.7074 156.508 51.3396 156.869 54.0265 156.869C56.7134 156.869 57.3456 156.508 57.3456 154.973ZM64.9321 154.973C64.9321 153.498 64.2999 153.076 62.0872 153.076C60.5225 153.076 59.2422 153.255 59.2422 153.473C59.2422 153.691 58.9832 154.544 58.6666 155.369C58.2073 156.566 58.7821 156.869 61.5116 156.869C64.2999 156.869 64.9321 156.519 64.9321 154.973ZM72.5187 154.973C72.5187 153.498 71.8865 153.076 69.6737 153.076C67.461 153.076 66.8288 153.498 66.8288 154.973C66.8288 156.448 67.461 156.869 69.6737 156.869C71.8865 156.869 72.5187 156.448 72.5187 154.973ZM81.0535 155.447C81.0535 154.665 80.2349 154.025 79.2344 154.025C78.234 154.025 76.7404 153.765 75.9153 153.449C74.84 153.036 74.4153 153.439 74.4153 154.871C74.4153 156.523 74.9913 156.869 77.7344 156.869C80.0525 156.869 81.0535 156.44 81.0535 155.447ZM88.6401 155.447C88.6401 154.499 87.6917 154.025 85.7951 154.025C83.8985 154.025 82.9502 154.499 82.9502 155.447C82.9502 156.395 83.8985 156.869 85.7951 156.869C87.6917 156.869 88.6401 156.395 88.6401 155.447ZM97.1749 155.447C97.1749 154.454 96.1739 154.025 93.8558 154.025C91.5377 154.025 90.5367 154.454 90.5367 155.447C90.5367 156.44 91.5377 156.869 93.8558 156.869C96.1739 156.869 97.1749 156.44 97.1749 155.447ZM104.761 155.447C104.761 154.454 103.76 154.025 101.442 154.025C99.1242 154.025 98.1232 154.454 98.1232 155.447C98.1232 156.44 99.1242 156.869 101.442 156.869C103.76 156.869 104.761 156.44 104.761 155.447ZM711.921 155.549C715.447 152.873 713.058 150.236 709.324 152.683C707.431 153.923 707.143 154.546 707.991 155.567C709.312 157.159 709.804 157.157 711.921 155.549ZM41.4575 154.183C41.7836 152.936 41.1606 152.162 39.2522 151.441C37.7894 150.889 36.3544 150.676 36.0634 150.967C34.8691 152.161 35.6673 154.139 37.668 154.943C40.7115 156.167 40.9514 156.119 41.4575 154.183ZM34.0104 151.576C34.327 150.751 34.586 149.939 34.586 149.772C34.586 149.11 29.0218 147.577 28.5025 148.096C27.3395 149.259 28.0292 150.929 30.0815 151.919C33.003 153.328 33.3498 153.298 34.0104 151.576ZM718.56 150.808C721.995 148.2 719.44 145.7 715.772 148.079C714.598 148.841 713.921 150.013 714.214 150.777C714.855 152.448 716.385 152.459 718.56 150.808ZM25.6992 145.951C23.6643 143.916 21.3095 144.194 21.3095 146.469C21.3095 148.902 25.2182 150.619 26.3427 148.68C26.8083 147.878 26.556 146.807 25.6992 145.951ZM720.219 142.259C720.219 139.496 719.945 139.101 718.323 139.525C716.245 140.068 716.188 140.237 717.024 143.356C717.938 146.768 720.219 145.985 720.219 142.259ZM25.4755 142.093C26.6371 139.066 26.0943 136.955 24.1545 136.955C22.7041 136.955 22.2579 137.587 22.2579 139.642C22.2579 143.545 24.3165 145.113 25.4755 142.093ZM720.219 134.584C720.219 131.897 719.858 131.265 718.323 131.265C716.787 131.265 716.426 131.897 716.426 134.584C716.426 137.271 716.787 137.903 718.323 137.903C719.858 137.903 720.219 137.271 720.219 134.584ZM27.2017 132.213C27.5276 129.993 27.2611 129.368 25.9884 129.368C24.3601 129.368 23.2062 131.17 23.2062 133.713C23.2062 134.453 24.0112 135.058 24.9952 135.058C26.258 135.058 26.907 134.221 27.2017 132.213ZM720.045 126.769C719.864 125.201 719.086 124.044 718.086 123.854C716.797 123.61 716.426 124.19 716.426 126.454C716.426 128.767 716.83 129.368 718.386 129.368C719.963 129.368 720.287 128.861 720.045 126.769ZM28.3741 124.954C28.7849 123.317 28.5719 122.16 27.7657 121.649C25.8206 120.416 25.1028 120.686 25.1028 122.653C25.1028 123.653 24.8438 125.147 24.5272 125.972C24.1206 127.031 24.5082 127.472 25.8469 127.472C27.1072 127.472 27.9539 126.628 28.3741 124.954ZM719.271 118.463C719.271 116.205 718.834 115.144 717.904 115.144C715.962 115.144 715.325 116.576 716.026 119.367C716.953 123.064 719.271 122.418 719.271 118.463ZM29.6735 116.239C29.9255 113.617 29.6847 113.138 28.2511 113.409C27.0746 113.632 26.4287 114.741 26.222 116.893C25.97 119.515 26.2108 119.994 27.6445 119.723C28.8209 119.5 29.4668 118.391 29.6735 116.239ZM719.271 110.876C719.271 108.189 718.91 107.557 717.374 107.557C715.839 107.557 715.478 108.189 715.478 110.876C715.478 113.563 715.839 114.195 717.374 114.195C718.91 114.195 719.271 113.563 719.271 110.876ZM30.7927 110.48C30.7927 109.479 31.0517 107.985 31.3683 107.16C31.7749 106.101 31.3873 105.66 30.0487 105.66C27.719 105.66 26.2029 110.261 28.1299 111.483C30.075 112.717 30.7927 112.446 30.7927 110.48ZM719.271 103.26C719.271 101.94 718.631 100.614 717.848 100.313C717.066 100.013 716.426 98.9597 716.426 97.9724C716.426 96.61 715.74 96.1772 713.581 96.1772C711.368 96.1772 710.736 96.5987 710.736 98.0738C710.736 99.4647 711.368 99.9705 713.107 99.9705C715.109 99.9705 715.478 100.413 715.478 102.815C715.478 105.028 715.899 105.66 717.374 105.66C718.771 105.66 719.271 105.028 719.271 103.26ZM32.1137 102.264C33.1663 99.5207 32.7102 98.0738 30.7927 98.0738C29.3176 98.0738 28.8961 98.7061 28.8961 100.919C28.8961 103.985 31.0997 104.906 32.1137 102.264ZM692.718 97.1255C692.718 95.6504 692.086 95.2289 689.873 95.2289C686.21 95.2289 686.015 97.7943 689.636 98.343C691.07 98.5602 692.351 98.8019 692.481 98.8801C692.611 98.9582 692.718 98.1687 692.718 97.1255ZM701.253 97.1255C701.253 95.5902 700.621 95.2289 697.934 95.2289C695.247 95.2289 694.615 95.5902 694.615 97.1255C694.615 98.6609 695.247 99.0222 697.934 99.0222C700.621 99.0222 701.253 98.6609 701.253 97.1255ZM708.839 97.7025C708.839 95.8713 704.03 94.7618 703.017 96.3593C701.645 98.5222 702.115 99.0222 705.52 99.0222C707.724 99.0222 708.839 98.5785 708.839 97.7025ZM677.545 96.1772C677.545 94.6418 676.913 94.2806 674.226 94.2806C670.913 94.2806 669.488 96.3949 672.092 97.4458C675.039 98.635 677.545 98.052 677.545 96.1772ZM685.131 96.1171C685.131 94.4817 684.627 94.2092 682.057 94.4576C680.033 94.6533 678.876 95.3213 678.669 96.4142C678.417 97.7438 679.028 98.0738 681.743 98.0738C684.534 98.0738 685.131 97.7288 685.131 96.1171ZM661.424 95.2289C661.424 93.6935 660.791 93.3322 658.104 93.3322C655.418 93.3322 654.785 93.6935 654.785 95.2289C654.785 96.7643 655.418 97.1255 658.104 97.1255C660.791 97.1255 661.424 96.7643 661.424 95.2289ZM668.834 95.4659C668.645 94.465 667.488 93.6873 665.92 93.5063C663.828 93.2648 663.32 93.5888 663.32 95.1659C663.32 96.7214 663.921 97.1255 666.235 97.1255C668.498 97.1255 669.079 96.7547 668.834 95.4659ZM33.6377 93.3882C33.6377 90.2347 31.949 88.6329 30.7012 90.6029C29.1302 93.0833 29.7073 96.1772 31.741 96.1772C33.2077 96.1772 33.6377 95.545 33.6377 93.3882ZM637.716 94.2806C637.716 92.7452 637.083 92.3839 634.397 92.3839C630.335 92.3839 629.76 94.9033 633.685 95.498C635.12 95.7153 636.613 95.9569 637.004 96.0351C637.396 96.1133 637.716 95.3237 637.716 94.2806ZM645.302 94.2806C645.302 92.8054 644.67 92.3839 642.457 92.3839C640.245 92.3839 639.612 92.8054 639.612 94.2806C639.612 95.7557 640.245 96.1772 642.457 96.1772C644.67 96.1772 645.302 95.7557 645.302 94.2806ZM653.402 95.1658C654.21 93.8588 653.969 93.6837 650.281 92.8935C647.58 92.3149 647.199 92.4772 647.199 94.2053C647.199 95.7553 647.796 96.1772 649.988 96.1772C651.522 96.1772 653.058 95.722 653.402 95.1658ZM621.594 93.3323C621.594 91.8571 620.962 91.4356 618.749 91.4356C617.011 91.4356 615.904 91.9273 615.904 92.7C615.904 94.5275 616.869 95.2289 619.382 95.2289C620.962 95.2289 621.594 94.687 621.594 93.3323ZM629.488 93.8991C630.189 92.0722 629.334 91.4356 626.178 91.4356C624.123 91.4356 623.491 91.8819 623.491 93.3323C623.491 94.7918 624.123 95.2289 626.234 95.2289C627.743 95.2289 629.208 94.6305 629.488 93.8991ZM605.473 92.3839C605.473 90.9088 604.841 90.4873 602.628 90.4873C600.415 90.4873 599.783 90.9088 599.783 92.3839C599.783 93.8591 600.415 94.2806 602.628 94.2806C604.841 94.2806 605.473 93.8591 605.473 92.3839ZM614.008 92.9596C614.008 91.5096 612.015 90.4873 609.189 90.4873C608.002 90.4873 607.37 91.1465 607.37 92.3839C607.37 93.9193 608.002 94.2806 610.689 94.2806C612.893 94.2806 614.008 93.8371 614.008 92.9596ZM581.765 91.4356C581.765 89.9605 581.133 89.539 578.92 89.539C575.788 89.539 574.883 91.9335 577.735 92.6786C581.013 93.5352 581.765 93.3033 581.765 91.4356ZM590.3 91.4356C590.3 89.9003 589.668 89.539 586.981 89.539C584.294 89.539 583.662 89.9003 583.662 91.4356C583.662 92.971 584.294 93.3323 586.981 93.3323C589.668 93.3323 590.3 92.971 590.3 91.4356ZM597.886 92.0174C597.886 91.2815 596.634 90.5187 595.041 90.285C593.477 90.0554 592.196 89.972 592.196 90.0998C592.196 90.2276 591.937 91.0072 591.621 91.8322C591.161 93.0292 591.736 93.3323 594.466 93.3323C596.75 93.3323 597.886 92.8953 597.886 92.0174ZM566.416 90.2502C566.668 88.9206 566.057 88.5907 563.342 88.5907C560.12 88.5907 558.885 90.0505 560.629 91.7953C561.895 93.061 566.096 91.9395 566.416 90.2502ZM574.178 90.4873C574.178 88.9519 573.546 88.5907 570.859 88.5907C568.172 88.5907 567.54 88.9519 567.54 90.4873C567.54 92.0227 568.172 92.3839 570.859 92.3839C573.546 92.3839 574.178 92.0227 574.178 90.4873ZM550.47 89.539C550.47 88.0036 549.838 87.6424 547.151 87.6424C544.464 87.6424 543.832 88.0036 543.832 89.539C543.832 91.0744 544.464 91.4356 547.151 91.4356C549.838 91.4356 550.47 91.0744 550.47 89.539ZM558.057 90.1146C558.057 88.7585 556.095 87.6424 553.712 87.6424C552.972 87.6424 552.367 88.4958 552.367 89.539C552.367 91.0142 552.999 91.4356 555.212 91.4356C557.012 91.4356 558.057 90.9502 558.057 90.1146ZM526.763 88.5907C526.763 87.0553 526.13 86.694 523.443 86.694C519.902 86.694 518.672 89.0204 521.784 89.8336C525.471 90.7971 526.763 90.4746 526.763 88.5907ZM534.349 88.5907C534.349 87.1155 533.717 86.694 531.504 86.694C529.291 86.694 528.659 87.1155 528.659 88.5907C528.659 90.0658 529.291 90.4873 531.504 90.4873C533.717 90.4873 534.349 90.0658 534.349 88.5907ZM542.617 88.9365C542.821 88.312 541.557 87.695 539.608 87.4674C536.82 87.142 536.246 87.3767 536.246 88.8412C536.246 90.2554 536.846 90.5482 539.255 90.3103C540.91 90.1469 542.423 89.5286 542.617 88.9365ZM510.641 87.6424C510.641 86.1828 510.009 85.7457 507.898 85.7457C506.389 85.7457 504.925 86.3441 504.644 87.0755C503.943 88.9024 504.798 89.539 507.954 89.539C510.009 89.539 510.641 89.0927 510.641 87.6424ZM518.228 87.6424C518.228 86.1672 517.595 85.7457 515.383 85.7457C513.17 85.7457 512.538 86.1672 512.538 87.6424C512.538 89.1175 513.17 89.539 515.383 89.539C517.595 89.539 518.228 89.1175 518.228 87.6424ZM34.5989 87.4053C34.606 86.7533 34.8692 85.2597 35.1837 84.0862C35.6372 82.3941 35.363 81.9524 33.8588 81.9524C32.5437 81.9524 31.8096 82.7505 31.4646 84.5549C31.191 85.9863 31.1665 87.4799 31.4101 87.8741C32.1351 89.0471 34.5849 88.687 34.5989 87.4053ZM486.933 86.634C486.933 85.0059 486.428 84.7271 483.924 84.9744C479.8 85.3817 479.379 87.415 483.319 87.9004C485.046 88.1131 486.566 88.3554 486.696 88.4389C486.827 88.5224 486.933 87.7102 486.933 86.634ZM494.52 86.6941C494.52 85.2189 493.888 84.7974 491.675 84.7974C489.462 84.7974 488.83 85.2189 488.83 86.6941C488.83 88.1692 489.462 88.5907 491.675 88.5907C493.888 88.5907 494.52 88.1692 494.52 86.6941ZM503.055 87.2788C503.055 86.0597 500.361 84.8405 497.602 84.8104C496.95 84.8034 496.416 85.6509 496.416 86.6941C496.416 88.2294 497.049 88.5907 499.736 88.5907C501.929 88.5907 503.055 88.1459 503.055 87.2788ZM470.812 85.7458C470.812 84.2706 470.18 83.8491 467.967 83.8491C463.312 83.8491 464.429 87.3544 469.152 87.5675C470.205 87.615 470.812 86.9484 470.812 85.7458ZM479.347 85.7458C479.347 84.2104 478.714 83.8491 476.028 83.8491C473.341 83.8491 472.708 84.2104 472.708 85.7458C472.708 87.2811 473.341 87.6424 476.028 87.6424C478.714 87.6424 479.347 87.2811 479.347 85.7458ZM455.463 84.5604C455.715 83.2308 455.104 82.9008 452.389 82.9008C449.598 82.9008 449.001 83.2458 449.001 84.8575C449.001 86.493 449.505 86.7654 452.075 86.5171C454.1 86.3213 455.256 85.6533 455.463 84.5604ZM463.05 85.0345C462.843 83.9415 461.686 83.2735 459.661 83.0778C457.092 82.8294 456.587 83.1019 456.587 84.7373C456.587 86.349 457.185 86.6941 459.976 86.6941C462.691 86.6941 463.302 86.3641 463.05 85.0345ZM431.355 84.2457C432.222 81.9871 432.181 81.9525 428.612 81.9525C424.818 81.9525 423.891 84.3956 427.426 85.0765C428.6 85.3025 429.834 85.5456 430.17 85.6166C430.505 85.6876 431.039 85.0707 431.355 84.2457ZM439.517 83.8491C439.517 82.3137 438.885 81.9525 436.198 81.9525C433.511 81.9525 432.879 82.3137 432.879 83.8491C432.879 85.3845 433.511 85.7458 436.198 85.7458C438.885 85.7458 439.517 85.3845 439.517 83.8491ZM447.104 84.3233C447.104 83.5409 446.499 82.9008 445.759 82.9008C445.019 82.9008 443.739 82.6418 442.914 82.3252C441.839 81.9125 441.414 82.3152 441.414 83.7476C441.414 85.3355 441.998 85.7458 444.259 85.7458C446.156 85.7458 447.104 85.2716 447.104 84.3233ZM415.809 82.9008C415.809 81.3654 415.177 81.0041 412.49 81.0041C409.178 81.0041 407.752 83.1185 410.357 84.1694C413.304 85.3586 415.809 84.7756 415.809 82.9008ZM423.396 82.9008C423.396 81.4256 422.764 81.0041 420.551 81.0041C418.338 81.0041 417.706 81.4256 417.706 82.9008C417.706 84.3759 418.338 84.7974 420.551 84.7974C422.764 84.7974 423.396 84.3759 423.396 82.9008ZM399.688 81.9524C399.688 80.4929 399.056 80.0558 396.945 80.0558C395.436 80.0558 393.971 80.6542 393.691 81.3856C392.99 83.2125 393.845 83.8491 397.001 83.8491C399.056 83.8491 399.688 83.4028 399.688 81.9524ZM407.099 82.1895C406.909 81.1886 405.752 80.4109 404.184 80.2299C402.092 79.9884 401.585 80.3124 401.585 81.8895C401.585 83.445 402.186 83.8491 404.499 83.8491C406.763 83.8491 407.343 83.4783 407.099 82.1895ZM375.98 81.0041C375.98 79.4688 375.348 79.1075 372.661 79.1075C368.867 79.1075 367.94 81.5506 371.476 82.2315C375.536 83.0135 375.98 82.8924 375.98 81.0041ZM383.567 81.0041C383.567 79.529 382.934 79.1075 380.722 79.1075C378.509 79.1075 377.877 79.529 377.877 81.0041C377.877 82.4793 378.509 82.9008 380.722 82.9008C382.934 82.9008 383.567 82.4793 383.567 81.0041ZM392.102 81.4783C392.102 80.6959 391.283 80.0558 390.282 80.0558C389.282 80.0558 387.788 79.7968 386.963 79.4802C385.888 79.0676 385.463 79.4702 385.463 80.9027C385.463 82.554 386.039 82.9008 388.782 82.9008C391.101 82.9008 392.102 82.4718 392.102 81.4783ZM359.859 80.0558C359.859 78.5807 359.227 78.1592 357.014 78.1592C354.801 78.1592 354.169 78.5807 354.169 80.0558C354.169 81.531 354.801 81.9524 357.014 81.9524C359.227 81.9524 359.859 81.531 359.859 80.0558ZM368.218 80.2929C368.011 79.1999 366.854 78.5319 364.83 78.3362C362.26 78.0878 361.755 78.3603 361.755 79.9957C361.755 81.6074 362.353 81.9524 365.144 81.9524C367.859 81.9524 368.47 81.6225 368.218 80.2929ZM36.4826 77.1549C36.4826 74.9981 36.0527 74.3659 34.586 74.3659C33.1229 74.3659 32.6894 74.9981 32.6894 77.1318C32.6894 79.7245 34.1593 81.2575 35.7714 80.346C36.1626 80.1249 36.4826 78.6888 36.4826 77.1549ZM344.51 78.8704C344.762 77.5409 344.151 77.2109 341.436 77.2109C338.645 77.2109 338.047 77.5559 338.047 79.1676C338.047 80.8031 338.552 81.0755 341.122 80.8271C343.146 80.6314 344.303 79.9634 344.51 78.8704ZM352.272 79.6831C352.272 78.2331 350.28 77.2109 347.453 77.2109C346.266 77.2109 345.634 77.87 345.634 79.1075C345.634 80.6429 346.266 81.0041 348.953 81.0041C351.158 81.0041 352.272 80.5607 352.272 79.6831ZM320.304 78.1592C320.728 76.5367 320.333 76.2626 317.57 76.2626C312.444 76.2626 313.436 79.4037 318.733 79.9458C319.325 80.0063 320.031 79.2023 320.304 78.1592ZM328.564 78.1592C328.564 76.6238 327.932 76.2626 325.245 76.2626C322.558 76.2626 321.926 76.6238 321.926 78.1592C321.926 79.6945 322.558 80.0558 325.245 80.0558C327.932 80.0558 328.564 79.6945 328.564 78.1592ZM336.151 78.741C336.151 78.005 334.898 77.2423 333.306 77.0086C331.031 76.6747 330.461 76.938 330.461 78.3234C330.461 79.6161 331.183 80.0558 333.306 80.0558C335.099 80.0558 336.151 79.5697 336.151 78.741ZM304.856 77.2109C304.856 75.6755 304.224 75.3142 301.537 75.3142C298.85 75.3142 298.218 75.6755 298.218 77.2109C298.218 78.7462 298.85 79.1075 301.537 79.1075C304.224 79.1075 304.856 78.7462 304.856 77.2109ZM312.443 77.2109C312.443 75.7357 311.811 75.3142 309.598 75.3142C307.385 75.3142 306.753 75.7357 306.753 77.2109C306.753 78.686 307.385 79.1075 309.598 79.1075C311.811 79.1075 312.443 78.686 312.443 77.2109ZM281.148 75.7324C281.148 74.8029 280.087 74.3659 277.829 74.3659C273.762 74.3659 273.169 76.9131 277.118 77.4188C280.331 77.8302 281.148 77.4882 281.148 75.7324ZM288.735 76.2626C288.735 74.7874 288.103 74.3659 285.89 74.3659C284.325 74.3659 283.045 74.5444 283.045 74.7625C283.045 74.9806 282.786 75.8341 282.469 76.6591C282.01 77.8561 282.585 78.1592 285.314 78.1592C288.103 78.1592 288.735 77.8086 288.735 76.2626ZM296.322 76.8382C296.322 75.4821 294.36 74.3659 291.977 74.3659C291.237 74.3659 290.632 75.2194 290.632 76.2626C290.632 77.7377 291.264 78.1592 293.477 78.1592C295.276 78.1592 296.322 77.6738 296.322 76.8382ZM265.027 75.3142C265.027 73.7789 264.395 73.4176 261.708 73.4176C258.166 73.4176 256.937 75.744 260.048 76.5572C263.735 77.5206 265.027 77.1982 265.027 75.3142ZM272.614 75.3142C272.614 73.8391 271.981 73.4176 269.769 73.4176C267.556 73.4176 266.924 73.8391 266.924 75.3142C266.924 76.7894 267.556 77.2109 269.769 77.2109C271.981 77.2109 272.614 76.7894 272.614 75.3142ZM248.906 74.3659C248.906 72.8907 248.273 72.4693 246.061 72.4693C243.848 72.4693 243.216 72.8907 243.216 74.3659C243.216 75.8411 243.848 76.2626 246.061 76.2626C248.273 76.2626 248.906 75.8411 248.906 74.3659ZM257.265 74.603C257.058 73.51 255.901 72.842 253.877 72.6463C251.307 72.3979 250.802 72.6704 250.802 74.3058C250.802 75.9175 251.4 76.2626 254.191 76.2626C256.906 76.2626 257.517 75.9326 257.265 74.603ZM225.198 73.4176C225.198 71.9424 224.565 71.521 222.353 71.521C220.518 71.521 219.508 72.0025 219.508 72.8775C219.508 74.0474 220.337 74.4316 224.486 75.1851C224.878 75.2561 225.198 74.4607 225.198 73.4176ZM233.557 73.1805C233.809 71.851 233.198 71.521 230.483 71.521C227.692 71.521 227.094 71.866 227.094 73.4777C227.094 75.1131 227.599 75.3856 230.169 75.1372C232.193 74.9415 233.35 74.2735 233.557 73.1805ZM241.319 73.8918C241.319 73.1094 240.786 72.4634 240.134 72.4563C239.482 72.4493 237.988 72.1861 236.815 71.8716C235.094 71.4104 234.681 71.6882 234.681 73.307C234.681 74.9688 235.252 75.3142 238 75.3142C240.318 75.3142 241.319 74.8852 241.319 73.8918ZM209.076 72.4693C209.076 70.9941 208.444 70.5727 206.231 70.5727C201.576 70.5727 202.694 74.078 207.417 74.291C208.469 74.3385 209.076 73.6719 209.076 72.4693ZM217.611 72.4693C217.611 70.9339 216.979 70.5727 214.292 70.5727C211.605 70.5727 210.973 70.9339 210.973 72.4693C210.973 74.0047 211.605 74.3659 214.292 74.3659C216.979 74.3659 217.611 74.0047 217.611 72.4693ZM193.903 71.521C193.903 69.9856 193.271 69.6243 190.584 69.6243C187.897 69.6243 187.265 69.9856 187.265 71.521C187.265 73.0563 187.897 73.4176 190.584 73.4176C193.271 73.4176 193.903 73.0563 193.903 71.521ZM201.314 71.7581C200.836 69.2368 196.183 69.0047 195.538 71.4699C195.097 73.159 195.467 73.4176 198.329 73.4176C200.959 73.4176 201.565 73.0809 201.314 71.7581ZM37.4309 71.1244C37.4309 70.3847 37.69 69.1044 38.0066 68.2794C38.4132 67.2197 38.0254 66.7794 36.6855 66.7794C34.8223 66.7794 33.6377 68.4681 33.6377 71.1244C33.6377 71.8641 34.4912 72.4693 35.5343 72.4693C36.5775 72.4693 37.4309 71.8641 37.4309 71.1244ZM170.028 70.257C170.268 69.019 169.599 68.676 166.946 68.676C163.094 68.676 162.112 71.1154 165.691 71.7932C168.756 72.3738 169.681 72.0463 170.028 70.257ZM177.782 70.5126C177.782 68.8771 177.277 68.6046 174.708 68.853C172.683 69.0487 171.526 69.7167 171.319 70.8097C171.067 72.1393 171.678 72.4693 174.393 72.4693C177.184 72.4693 177.782 72.1243 177.782 70.5126ZM185.368 71.0468C185.368 70.2645 184.763 69.6243 184.023 69.6243C183.284 69.6243 182.004 69.3653 181.179 69.0487C180.103 68.6361 179.678 69.0387 179.678 70.4712C179.678 72.0591 180.263 72.4693 182.523 72.4693C184.42 72.4693 185.368 71.9951 185.368 71.0468ZM154.074 69.6243C154.074 68.089 153.442 67.7277 150.755 67.7277C148.621 67.7277 147.436 68.1793 147.436 68.9921C147.436 70.8923 148.418 71.521 151.387 71.521C153.442 71.521 154.074 71.0747 154.074 69.6243ZM161.66 69.6243C161.66 68.1492 161.028 67.7277 158.816 67.7277C156.603 67.7277 155.971 68.1492 155.971 69.6243C155.971 71.0995 156.603 71.521 158.816 71.521C161.028 71.521 161.66 71.0995 161.66 69.6243ZM137.953 68.676C137.953 67.2009 137.32 66.7794 135.108 66.7794C132.895 66.7794 132.263 67.2009 132.263 68.676C132.263 70.1512 132.895 70.5727 135.108 70.5727C137.32 70.5727 137.953 70.1512 137.953 68.676ZM146.487 69.2516C146.487 67.8017 144.495 66.7794 141.668 66.7794C140.481 66.7794 139.849 67.4386 139.849 68.676C139.849 70.2114 140.481 70.5727 143.168 70.5727C145.373 70.5727 146.487 70.1292 146.487 69.2516ZM114.245 67.7277C114.245 66.2525 113.612 65.8311 111.4 65.8311C108.267 65.8311 107.363 68.2255 110.214 68.9706C113.492 69.8273 114.245 69.5953 114.245 67.7277ZM121.831 69.2277C121.831 69.0096 122.09 68.1561 122.407 67.3311C122.866 66.1341 122.291 65.8311 119.562 65.8311C116.773 65.8311 116.141 66.1816 116.141 67.7277C116.141 69.2028 116.773 69.6243 118.986 69.6243C120.551 69.6243 121.831 69.4459 121.831 69.2277ZM130.366 68.2019C130.366 67.3168 129.47 66.7794 127.995 66.7794C126.691 66.7794 125.304 66.7568 124.913 66.7293C124.522 66.7017 124.064 67.3418 123.895 68.1518C123.663 69.2654 124.415 69.6243 126.977 69.6243C129.357 69.6243 130.366 69.2009 130.366 68.2019ZM98.1232 66.7794C98.1232 65.3042 97.491 64.8827 95.2783 64.8827C93.0655 64.8827 92.4333 65.3042 92.4333 66.7794C92.4333 68.2545 93.0655 68.676 95.2783 68.676C97.491 68.676 98.1232 68.2545 98.1232 66.7794ZM106.658 66.7794C106.658 65.244 106.026 64.8827 103.339 64.8827C100.652 64.8827 100.02 65.244 100.02 66.7794C100.02 68.3148 100.652 68.676 103.339 68.676C106.026 68.676 106.658 68.3148 106.658 66.7794ZM82.9502 65.8311C82.9502 64.2957 82.3179 63.9344 79.631 63.9344C76.9441 63.9344 76.3119 64.2957 76.3119 65.8311C76.3119 67.3665 76.9441 67.7277 79.631 67.7277C82.3179 67.7277 82.9502 67.3665 82.9502 65.8311ZM90.5367 66.4158C90.5367 65.6943 89.5765 64.8467 88.403 64.5322C85.2841 63.6963 85.1153 63.7535 84.572 65.8311C84.1477 67.4536 84.5429 67.7277 87.3064 67.7277C89.4245 67.7277 90.5367 67.276 90.5367 66.4158ZM59.2422 64.8827C59.2422 63.4919 58.61 62.9861 56.8714 62.9861C55.5675 62.9861 54.1806 62.9636 53.7894 62.936C52.2293 62.8261 52.609 65.7005 54.2094 66.1153C57.961 67.0875 59.2422 66.7737 59.2422 64.8827ZM66.8288 64.8227C66.8288 63.1872 66.324 62.9147 63.7545 63.1631C61.7298 63.3588 60.5729 64.0268 60.3659 65.1198C60.114 66.4494 60.7253 66.7794 63.4401 66.7794C66.2312 66.7794 66.8288 66.4343 66.8288 64.8227ZM74.4153 65.3569C74.4153 64.4086 73.467 63.9344 71.5704 63.9344C69.6737 63.9344 68.7254 64.4086 68.7254 65.3569C68.7254 66.3052 69.6737 66.7794 71.5704 66.7794C73.467 66.7794 74.4153 66.3052 74.4153 65.3569ZM38.694 63.5338C38.9787 62.7919 40.1644 62.0451 41.329 61.8743C44.449 61.4166 44.5476 59.5381 41.5044 58.5321C37.9455 57.3558 35.5343 58.0024 35.5343 60.1331C35.5343 61.0954 35.2753 62.5577 34.9587 63.3827C34.552 64.4424 34.9398 64.8827 36.2797 64.8827C37.3229 64.8827 38.4093 64.2757 38.694 63.5338ZM51.1024 63.3245C51.8515 61.3723 51.7101 61.2426 48.0304 60.5067C45.4272 59.986 45.0175 60.1691 45.0175 61.8533C45.0175 63.1207 45.7638 63.9463 47.1512 64.2135C48.3247 64.4395 49.5593 64.6826 49.8947 64.7536C50.2301 64.8246 50.7735 64.1816 51.1024 63.3245Z" fill="white"/>
<path d="M120.514 44.8701C103.36 43.9099 89.1381 42.9372 88.9094 42.7085C88.5325 42.3316 90.0007 33.3206 92.4865 20.7545L93.4307 15.9816L119.248 18.5738C133.447 19.9996 145.952 21.1872 147.036 21.2131C148.629 21.2511 149.606 22.8479 152.14 29.5579C153.864 34.1217 156.064 39.8827 157.031 42.3602L158.788 46.8647L155.245 46.7403C153.297 46.6719 137.668 45.8304 120.514 44.8701Z" fill="white"/>
<path d="M243.292 49.8083C225.869 48.8249 216.22 47.9198 215.998 47.2481C215.677 46.2778 220.066 24.0768 220.659 23.6716C220.808 23.5698 233.172 24.5616 248.134 25.8756L275.338 28.2646L277.412 34.0085C278.553 37.1676 280.482 42.4194 281.698 45.6792L283.908 51.6063L277.076 51.4679C273.318 51.3918 258.115 50.645 243.292 49.8083Z" fill="white"/>
<path d="M345.69 55.256C328.248 54.2664 313.789 53.2686 313.559 53.0386C313.105 52.5848 316.269 39.7369 317.131 38.5321C317.569 37.9212 373.179 39.0096 373.814 39.6415C374.477 40.3017 378.573 57.2746 378.045 57.1758C377.692 57.1096 363.132 56.2457 345.69 55.256Z" fill="white"/>
<path d="M438.365 60.2049C422.867 59.3371 409.951 58.3921 409.664 58.1048C409.376 57.8175 409.487 55.9177 409.91 53.8831L410.679 50.1838L430.077 50.11C445.719 50.0505 457.807 49.1947 467.297 47.4752C468.029 47.3426 473.657 59.4737 473.657 61.1833C473.657 62.1964 474.202 62.2115 438.365 60.2049Z" fill="white"/>
<path d="M554.738 66.3091C554.216 66.1328 542.328 65.4618 528.319 64.8181L502.848 63.6476L503.479 58.8123C504.723 49.2666 503.512 50.0727 517.628 49.3956C524.527 49.0648 536.94 47.9149 545.212 46.8404C553.484 45.7659 560.548 45.2251 560.911 45.6386C561.273 46.0521 563.174 50.4445 565.136 55.3995C567.097 60.3544 568.913 64.9419 569.171 65.5939C569.522 66.4811 567.885 66.7605 562.663 66.7044C558.826 66.6632 555.26 66.4853 554.738 66.3091Z" fill="white"/>
<path d="M631.657 70.4747C614.503 69.5145 600.262 68.5231 600.011 68.2716C599.759 68.0201 599.856 65.3959 600.225 62.44L600.896 57.0657L608.233 57.7057C616.639 58.4389 635.436 57.0197 649.516 54.5887L659.151 52.9253L662.312 61.5119C664.051 66.2345 665.675 70.6319 665.921 71.2838C666.187 71.9884 665.654 72.4188 664.607 72.3449C663.638 72.2765 648.811 71.435 631.657 70.4747Z" fill="white"/>
<path d="M263.13 163.46C144.472 163.114 44.9138 162.495 41.8895 162.085C37.1728 161.445 36.1936 160.958 35.0044 158.658C33.2079 155.184 31.6753 154.441 23.8047 153.225C20.222 152.671 17.0776 152.005 16.8171 151.745C16.0858 151.013 30.1259 54.802 31.1071 53.8208C31.3625 53.5654 35.1303 53.9988 39.4799 54.7839C55.0185 57.5889 26.8419 55.984 407.749 75.7597C573.088 84.3437 711.833 91.6297 716.072 91.9509L723.78 92.5348L724.354 100.757C724.67 105.279 725.209 119.293 725.552 131.898L726.175 154.817L721.538 155.456C712.19 156.743 709.763 157.752 707.734 161.191L705.807 164.456L592.34 164.273C529.933 164.173 381.789 163.807 263.13 163.46ZM691.77 160.663C691.77 159.188 691.137 158.766 688.925 158.766C687.09 158.766 686.08 159.248 686.08 160.123C686.08 161.293 686.909 161.677 691.058 162.43C691.45 162.501 691.77 161.706 691.77 160.663ZM700.129 160.426C700.381 159.096 699.77 158.766 697.055 158.766C694.264 158.766 693.666 159.111 693.666 160.723C693.666 162.358 694.171 162.631 696.741 162.382C698.765 162.187 699.922 161.519 700.129 160.426ZM580.641 159.477C580.885 158.188 580.305 157.818 578.041 157.818C575.728 157.818 575.127 158.222 575.127 159.777C575.127 161.354 575.634 161.678 577.726 161.437C579.294 161.256 580.451 160.478 580.641 159.477ZM588.403 159.714C588.403 158.239 587.771 157.818 585.558 157.818C583.345 157.818 582.713 158.239 582.713 159.714C582.713 161.19 583.345 161.611 585.558 161.611C587.771 161.611 588.403 161.19 588.403 159.714ZM596.938 159.714C596.938 158.179 596.306 157.818 593.619 157.818C590.932 157.818 590.3 158.179 590.3 159.714C590.3 161.25 590.932 161.611 593.619 161.611C596.306 161.611 596.938 161.25 596.938 159.714ZM604.524 159.714C604.524 158.239 603.892 157.818 601.68 157.818C599.467 157.818 598.835 158.239 598.835 159.714C598.835 161.19 599.467 161.611 601.68 161.611C603.892 161.611 604.524 161.19 604.524 159.714ZM612.585 159.714C612.585 158.803 611.478 158.185 609.503 157.995C606.899 157.744 606.421 158.01 606.421 159.714C606.421 161.419 606.899 161.685 609.503 161.434C611.478 161.244 612.585 160.626 612.585 159.714ZM620.646 159.714C620.646 158.179 620.014 157.818 617.327 157.818C614.64 157.818 614.008 158.179 614.008 159.714C614.008 161.25 614.64 161.611 617.327 161.611C620.014 161.611 620.646 161.25 620.646 159.714ZM628.232 159.714C628.232 158.239 627.6 157.818 625.387 157.818C623.175 157.818 622.542 158.239 622.542 159.714C622.542 161.19 623.175 161.611 625.387 161.611C627.6 161.611 628.232 161.19 628.232 159.714ZM636.592 159.951C636.385 158.859 635.228 158.19 633.203 157.995C630.634 157.746 630.129 158.019 630.129 159.654C630.129 161.266 630.727 161.611 633.518 161.611C636.233 161.611 636.844 161.281 636.592 159.951ZM644.354 159.654C644.354 158.019 643.849 157.746 641.28 157.995C639.255 158.19 638.098 158.859 637.891 159.951C637.639 161.281 638.25 161.611 640.965 161.611C643.756 161.611 644.354 161.266 644.354 159.654ZM651.94 159.714C651.94 158.239 651.308 157.818 649.095 157.818C646.883 157.818 646.25 158.239 646.25 159.714C646.25 161.19 646.883 161.611 649.095 161.611C651.308 161.611 651.94 161.19 651.94 159.714ZM660.475 160.207C660.475 158.666 656.438 157.271 654.839 158.259C652.537 159.681 653.871 161.611 657.156 161.611C659.455 161.611 660.475 161.179 660.475 160.207ZM668.062 160.189C668.062 159.24 667.113 158.766 665.217 158.766C663.32 158.766 662.372 159.24 662.372 160.189C662.372 161.137 663.32 161.611 665.217 161.611C667.113 161.611 668.062 161.137 668.062 160.189ZM675.648 160.189C675.648 159.24 674.7 158.766 672.803 158.766C670.907 158.766 669.958 159.24 669.958 160.189C669.958 161.137 670.907 161.611 672.803 161.611C674.7 161.611 675.648 161.137 675.648 160.189ZM684.183 160.189C684.183 159.195 683.182 158.766 680.864 158.766C678.546 158.766 677.545 159.195 677.545 160.189C677.545 161.182 678.546 161.611 680.864 161.611C683.182 161.611 684.183 161.182 684.183 160.189ZM705.208 160.042C708.674 156.906 706.491 154.436 702.702 157.207C701.626 157.994 701.177 159.097 701.543 160.052C702.297 162.015 703.03 162.013 705.208 160.042ZM461.636 159.333C462.337 157.506 461.482 156.869 458.326 156.869C456.64 156.869 455.639 157.37 455.639 158.213C455.639 160.615 460.776 161.574 461.636 159.333ZM469.863 158.766C469.863 157.231 469.231 156.869 466.544 156.869C464.411 156.869 463.225 157.321 463.225 158.134C463.225 160.034 464.208 160.663 467.177 160.663C469.231 160.663 469.863 160.216 469.863 158.766ZM477.45 158.766C477.45 157.291 476.818 156.869 474.605 156.869C472.392 156.869 471.76 157.291 471.76 158.766C471.76 160.241 472.392 160.663 474.605 160.663C476.818 160.663 477.45 160.241 477.45 158.766ZM485.81 158.529C486.061 157.199 485.45 156.869 482.735 156.869C479.944 156.869 479.347 157.215 479.347 158.826C479.347 160.462 479.851 160.734 482.421 160.486C484.446 160.29 485.603 159.622 485.81 158.529ZM493.571 158.766C493.571 157.299 492.939 156.869 490.782 156.869C489.249 156.869 487.73 157.296 487.407 157.818C486.409 159.434 487.867 160.663 490.782 160.663C492.939 160.663 493.571 160.233 493.571 158.766ZM501.158 158.766C501.158 157.291 500.526 156.869 498.313 156.869C496.1 156.869 495.468 157.291 495.468 158.766C495.468 160.241 496.1 160.663 498.313 160.663C500.526 160.663 501.158 160.241 501.158 158.766ZM509.693 158.766C509.693 157.231 509.061 156.869 506.374 156.869C503.687 156.869 503.055 157.231 503.055 158.766C503.055 160.301 503.687 160.663 506.374 160.663C509.061 160.663 509.693 160.301 509.693 158.766ZM517.279 158.766C517.279 157.291 516.647 156.869 514.434 156.869C512.222 156.869 511.589 157.291 511.589 158.766C511.589 160.241 512.222 160.663 514.434 160.663C516.647 160.663 517.279 160.241 517.279 158.766ZM524.866 158.766C524.866 157.291 524.234 156.869 522.021 156.869C519.808 156.869 519.176 157.291 519.176 158.766C519.176 160.241 519.808 160.663 522.021 160.663C524.234 160.663 524.866 160.241 524.866 158.766ZM533.401 158.706C533.401 157.071 532.896 156.798 530.326 157.046C528.302 157.242 527.145 157.91 526.938 159.003C526.686 160.333 527.297 160.663 530.012 160.663C532.803 160.663 533.401 160.318 533.401 158.706ZM540.987 158.766C540.987 157.291 540.355 156.869 538.142 156.869C535.93 156.869 535.297 157.291 535.297 158.766C535.297 160.241 535.93 160.663 538.142 160.663C540.355 160.663 540.987 160.241 540.987 158.766ZM549.522 159.24C549.522 158.247 548.521 157.818 546.203 157.818C543.885 157.818 542.884 158.247 542.884 159.24C542.884 160.234 543.885 160.663 546.203 160.663C548.521 160.663 549.522 160.234 549.522 159.24ZM557.109 159.24C557.109 158.247 556.108 157.818 553.79 157.818C551.471 157.818 550.47 158.247 550.47 159.24C550.47 160.234 551.471 160.663 553.79 160.663C556.108 160.663 557.109 160.234 557.109 159.24ZM564.695 159.24C564.695 158.292 563.747 157.818 561.85 157.818C559.954 157.818 559.005 158.292 559.005 159.24C559.005 160.189 559.954 160.663 561.85 160.663C563.747 160.663 564.695 160.189 564.695 159.24ZM573.23 159.24C573.23 158.247 572.229 157.818 569.911 157.818C567.593 157.818 566.592 158.247 566.592 159.24C566.592 160.234 567.593 160.663 569.911 160.663C572.229 160.663 573.23 160.234 573.23 159.24ZM342.789 157.818C342.789 156.282 342.157 155.921 339.47 155.921C335.409 155.921 334.833 158.44 338.759 159.035C340.193 159.252 341.687 159.494 342.078 159.572C342.469 159.651 342.789 158.861 342.789 157.818ZM350.376 157.818C350.376 156.343 349.743 155.921 347.531 155.921C345.318 155.921 344.686 156.343 344.686 157.818C344.686 159.293 345.318 159.714 347.531 159.714C349.743 159.714 350.376 159.293 350.376 157.818ZM358.91 157.818C358.91 156.282 358.278 155.921 355.591 155.921C352.904 155.921 352.272 156.282 352.272 157.818C352.272 159.353 352.904 159.714 355.591 159.714C358.278 159.714 358.91 159.353 358.91 157.818ZM366.497 157.818C366.497 156.343 365.865 155.921 363.652 155.921C361.439 155.921 360.807 156.343 360.807 157.818C360.807 159.293 361.439 159.714 363.652 159.714C365.865 159.714 366.497 159.293 366.497 157.818ZM374.083 157.818C374.083 156.343 373.451 155.921 371.239 155.921C369.026 155.921 368.394 156.343 368.394 157.818C368.394 159.293 369.026 159.714 371.239 159.714C373.451 159.714 374.083 159.293 374.083 157.818ZM382.618 157.818C382.618 156.282 381.986 155.921 379.299 155.921C376.612 155.921 375.98 156.282 375.98 157.818C375.98 159.353 376.612 159.714 379.299 159.714C381.986 159.714 382.618 159.353 382.618 157.818ZM390.205 157.818C390.205 156.343 389.573 155.921 387.36 155.921C385.147 155.921 384.515 156.343 384.515 157.818C384.515 159.293 385.147 159.714 387.36 159.714C389.573 159.714 390.205 159.293 390.205 157.818ZM398.266 157.818C398.266 156.906 397.159 156.289 395.184 156.098C392.579 155.847 392.102 156.114 392.102 157.818C392.102 159.522 392.579 159.789 395.184 159.537C397.159 159.347 398.266 158.729 398.266 157.818ZM406.326 157.758C406.326 156.122 405.822 155.85 403.252 156.098C401.227 156.294 400.07 156.962 399.863 158.055C399.612 159.384 400.223 159.714 402.938 159.714C405.729 159.714 406.326 159.369 406.326 157.758ZM413.913 157.818C413.913 156.343 413.281 155.921 411.068 155.921C408.855 155.921 408.223 156.343 408.223 157.818C408.223 159.293 408.855 159.714 411.068 159.714C413.281 159.714 413.913 159.293 413.913 157.818ZM422.272 158.055C422.065 156.962 420.908 156.294 418.884 156.098C416.314 155.85 415.809 156.122 415.809 157.758C415.809 159.369 416.407 159.714 419.198 159.714C421.913 159.714 422.524 159.384 422.272 158.055ZM430.034 158.292C430.034 156.743 424.854 156.226 423.952 157.686C423.162 158.963 424.419 159.714 427.347 159.714C429.103 159.714 430.034 159.222 430.034 158.292ZM437.621 158.292C437.621 157.344 436.672 156.869 434.776 156.869C432.879 156.869 431.931 157.344 431.931 158.292C431.931 159.24 432.879 159.714 434.776 159.714C436.672 159.714 437.621 159.24 437.621 158.292ZM446.156 158.292C446.156 157.298 445.155 156.869 442.836 156.869C440.518 156.869 439.517 157.298 439.517 158.292C439.517 159.285 440.518 159.714 442.836 159.714C445.155 159.714 446.156 159.285 446.156 158.292ZM453.742 158.292C453.742 157.344 452.794 156.869 450.897 156.869C449.001 156.869 448.052 157.344 448.052 158.292C448.052 159.24 449.001 159.714 450.897 159.714C452.794 159.714 453.742 159.24 453.742 158.292ZM231.66 156.632C231.912 155.303 231.301 154.973 228.586 154.973C225.365 154.973 224.129 156.433 225.873 158.177C227.139 159.443 231.34 158.322 231.66 156.632ZM239.422 156.869C239.422 155.394 238.79 154.973 236.578 154.973C234.365 154.973 233.733 155.394 233.733 156.869C233.733 158.345 234.365 158.766 236.578 158.766C238.79 158.766 239.422 158.345 239.422 156.869ZM247.782 156.632C248.034 155.303 247.423 154.973 244.708 154.973C241.917 154.973 241.319 155.318 241.319 156.93C241.319 158.565 241.824 158.837 244.393 158.589C246.418 158.393 247.575 157.725 247.782 156.632ZM255.544 156.869C255.544 155.334 254.912 154.973 252.225 154.973C249.538 154.973 248.906 155.334 248.906 156.869C248.906 158.405 249.538 158.766 252.225 158.766C254.912 158.766 255.544 158.405 255.544 156.869ZM263.13 156.869C263.13 155.394 262.498 154.973 260.285 154.973C258.073 154.973 257.441 155.394 257.441 156.869C257.441 158.345 258.073 158.766 260.285 158.766C262.498 158.766 263.13 158.345 263.13 156.869ZM271.665 156.869C271.665 155.334 271.033 154.973 268.346 154.973C265.659 154.973 265.027 155.334 265.027 156.869C265.027 158.405 265.659 158.766 268.346 158.766C271.033 158.766 271.665 158.405 271.665 156.869ZM279.252 156.869C279.252 155.403 278.62 154.973 276.463 154.973C274.929 154.973 273.41 155.4 273.088 155.921C272.089 157.537 273.548 158.766 276.463 158.766C278.62 158.766 279.252 158.336 279.252 156.869ZM286.838 156.869C286.838 155.394 286.206 154.973 283.993 154.973C281.781 154.973 281.148 155.394 281.148 156.869C281.148 158.345 281.781 158.766 283.993 158.766C286.206 158.766 286.838 158.345 286.838 156.869ZM295.373 156.869C295.373 155.334 294.741 154.973 292.054 154.973C289.367 154.973 288.735 155.334 288.735 156.869C288.735 158.405 289.367 158.766 292.054 158.766C294.741 158.766 295.373 158.405 295.373 156.869ZM302.96 156.869C302.96 155.394 302.328 154.973 300.115 154.973C297.902 154.973 297.27 155.394 297.27 156.869C297.27 158.345 297.902 158.766 300.115 158.766C302.328 158.766 302.96 158.345 302.96 156.869ZM310.546 157.445C310.546 156.089 308.585 154.973 306.201 154.973C305.462 154.973 304.856 155.826 304.856 156.869C304.856 158.345 305.489 158.766 307.701 158.766C309.501 158.766 310.546 158.281 310.546 157.445ZM319.081 157.344C319.081 156.35 318.08 155.921 315.762 155.921C313.444 155.921 312.443 156.35 312.443 157.344C312.443 158.337 313.444 158.766 315.762 158.766C318.08 158.766 319.081 158.337 319.081 157.344ZM326.668 157.344C326.668 156.395 325.719 155.921 323.823 155.921C321.926 155.921 320.978 156.395 320.978 157.344C320.978 158.292 321.926 158.766 323.823 158.766C325.719 158.766 326.668 158.292 326.668 157.344ZM335.202 157.344C335.202 156.35 334.202 155.921 331.883 155.921C329.565 155.921 328.564 156.35 328.564 157.344C328.564 158.337 329.565 158.766 331.883 158.766C334.202 158.766 335.202 158.337 335.202 157.344ZM112.348 155.921C112.348 154.446 111.716 154.024 109.503 154.024C104.848 154.024 105.966 157.53 110.688 157.743C111.741 157.79 112.348 157.124 112.348 155.921ZM120.707 155.684C120.959 154.354 120.348 154.024 117.633 154.024C114.411 154.024 113.176 155.484 114.92 157.229C116.186 158.495 120.387 157.373 120.707 155.684ZM128.469 155.921C128.469 154.454 127.837 154.024 125.68 154.024C122.765 154.024 121.307 155.254 122.305 156.869C122.628 157.391 124.146 157.818 125.68 157.818C127.837 157.818 128.469 157.388 128.469 155.921ZM136.056 155.921C136.056 154.446 135.424 154.024 133.211 154.024C130.998 154.024 130.366 154.446 130.366 155.921C130.366 157.396 130.998 157.818 133.211 157.818C135.424 157.818 136.056 157.396 136.056 155.921ZM144.591 155.921C144.591 154.386 143.959 154.024 141.272 154.024C138.585 154.024 137.953 154.386 137.953 155.921C137.953 157.457 138.585 157.818 141.272 157.818C143.959 157.818 144.591 157.457 144.591 155.921ZM152.177 155.921C152.177 154.446 151.545 154.024 149.332 154.024C147.12 154.024 146.487 154.446 146.487 155.921C146.487 157.396 147.12 157.818 149.332 157.818C151.545 157.818 152.177 157.396 152.177 155.921ZM159.764 155.921C159.764 154.446 159.132 154.024 156.919 154.024C154.706 154.024 154.074 154.446 154.074 155.921C154.074 157.396 154.706 157.818 156.919 157.818C159.132 157.818 159.764 157.396 159.764 155.921ZM168.299 155.921C168.299 154.386 167.666 154.024 164.98 154.024C162.293 154.024 161.66 154.386 161.66 155.921C161.66 157.457 162.293 157.818 164.98 157.818C167.666 157.818 168.299 157.457 168.299 155.921ZM175.885 155.921C175.885 154.446 175.253 154.024 173.04 154.024C170.828 154.024 170.195 154.446 170.195 155.921C170.195 157.396 170.828 157.818 173.04 157.818C175.253 157.818 175.885 157.396 175.885 155.921ZM184.245 156.158C184.038 155.065 182.881 154.397 180.856 154.201C178.287 153.953 177.782 154.226 177.782 155.861C177.782 157.473 178.379 157.818 181.171 157.818C183.885 157.818 184.497 157.488 184.245 156.158ZM192.007 155.861C192.007 154.226 191.502 153.953 188.932 154.201C186.908 154.397 185.751 155.065 185.544 156.158C185.292 157.488 185.903 157.818 188.618 157.818C191.409 157.818 192.007 157.473 192.007 155.861ZM199.593 156.395C199.593 155.447 198.645 154.973 196.748 154.973C194.852 154.973 193.903 155.447 193.903 156.395C193.903 157.344 194.852 157.818 196.748 157.818C198.645 157.818 199.593 157.344 199.593 156.395ZM208.128 156.395C208.128 155.402 207.127 154.973 204.809 154.973C202.491 154.973 201.49 155.402 201.49 156.395C201.49 157.389 202.491 157.818 204.809 157.818C207.127 157.818 208.128 157.389 208.128 156.395ZM215.715 156.395C215.715 155.447 214.766 154.973 212.87 154.973C210.973 154.973 210.025 155.447 210.025 156.395C210.025 157.344 210.973 157.818 212.87 157.818C214.766 157.818 215.715 157.344 215.715 156.395ZM223.301 156.395C223.301 155.447 222.353 154.973 220.456 154.973C218.559 154.973 217.611 155.447 217.611 156.395C217.611 157.344 218.559 157.818 220.456 157.818C222.353 157.818 223.301 157.344 223.301 156.395ZM48.8108 154.973C48.8108 153.498 48.1786 153.076 45.9658 153.076C43.7531 153.076 43.1209 153.498 43.1209 154.973C43.1209 156.448 43.7531 156.869 45.9658 156.869C48.1786 156.869 48.8108 156.448 48.8108 154.973ZM57.3456 154.973C57.3456 153.437 56.7134 153.076 54.0265 153.076C51.3396 153.076 50.7074 153.437 50.7074 154.973C50.7074 156.508 51.3396 156.869 54.0265 156.869C56.7134 156.869 57.3456 156.508 57.3456 154.973ZM64.9322 154.973C64.9322 153.498 64.2999 153.076 62.0872 153.076C59.8745 153.076 59.2423 153.498 59.2423 154.973C59.2423 156.448 59.8745 156.869 62.0872 156.869C64.2999 156.869 64.9322 156.448 64.9322 154.973ZM72.5187 154.973C72.5187 153.498 71.8865 153.076 69.6737 153.076C67.461 153.076 66.8288 153.498 66.8288 154.973C66.8288 156.448 67.461 156.869 69.6737 156.869C71.8865 156.869 72.5187 156.448 72.5187 154.973ZM81.0535 155.447C81.0535 154.562 80.1579 154.024 78.6827 154.024C77.3788 154.024 75.9919 154.002 75.6007 153.974C75.2095 153.947 74.7515 154.587 74.5829 155.397C74.351 156.511 75.1021 156.869 77.6649 156.869C80.0448 156.869 81.0535 156.446 81.0535 155.447ZM88.6401 155.447C88.6401 154.499 87.6918 154.024 85.7951 154.024C83.8985 154.024 82.9502 154.499 82.9502 155.447C82.9502 156.395 83.8985 156.869 85.7951 156.869C87.6918 156.869 88.6401 156.395 88.6401 155.447ZM96.9438 155.21C97.2065 154.41 96.2287 154.024 93.9349 154.024C91.4853 154.024 90.5367 154.438 90.5367 155.507C90.5367 157.329 96.3364 157.06 96.9438 155.21ZM104.761 155.447C104.761 154.453 103.76 154.024 101.442 154.024C99.1243 154.024 98.1233 154.453 98.1233 155.447C98.1233 156.44 99.1243 156.869 101.442 156.869C103.76 156.869 104.761 156.44 104.761 155.447ZM712.04 155.462C713.709 154.199 713.645 151.141 711.951 151.21C710.158 151.283 707.696 154.045 708.216 155.401C708.906 157.197 709.732 157.21 712.04 155.462ZM41.2242 154.126C41.2242 152.353 39.4943 151.18 36.8792 151.18C34.7334 151.18 35.3248 154.001 37.668 154.943C40.8034 156.204 41.2242 156.107 41.2242 154.126ZM34.0104 151.576C34.327 150.751 34.586 149.939 34.586 149.772C34.586 149.11 29.0218 147.577 28.5026 148.096C27.3395 149.259 28.0293 150.929 30.0815 151.919C33.003 153.328 33.3499 153.297 34.0104 151.576ZM718.56 150.808C722.023 148.179 719.499 146.183 715.451 148.349C714.404 148.909 713.878 149.901 714.192 150.72C714.854 152.444 716.363 152.475 718.56 150.808ZM26.5643 148.271C27.2401 147.178 24.4274 144.621 22.495 144.571C21.256 144.54 20.847 147.556 21.9418 148.651C22.9266 149.636 25.8705 149.394 26.5643 148.271ZM720.219 142.645C720.219 140.432 719.798 139.8 718.323 139.8C716.272 139.8 716.156 140.118 717.024 143.356C717.881 146.555 720.219 146.034 720.219 142.645ZM25.4755 142.093C26.6371 139.066 26.0943 136.955 24.1545 136.955C22.7042 136.955 22.2579 137.587 22.2579 139.642C22.2579 143.545 24.3165 145.113 25.4755 142.093ZM720.219 134.584C720.219 131.897 719.858 131.265 718.323 131.265C716.787 131.265 716.426 131.897 716.426 134.584C716.426 137.271 716.787 137.903 718.323 137.903C719.858 137.903 720.219 137.271 720.219 134.584ZM26.9995 132.213C26.9995 129.147 24.7959 128.226 23.7818 130.868C22.7292 133.611 23.1854 135.058 25.1028 135.058C26.578 135.058 26.9995 134.426 26.9995 132.213ZM720.219 128.023C720.219 125.64 719.103 123.678 717.747 123.678C716.911 123.678 716.426 124.724 716.426 126.523C716.426 128.736 716.847 129.368 718.323 129.368C719.366 129.368 720.219 128.763 720.219 128.023ZM28.3741 124.954C28.7849 123.317 28.572 122.16 27.7657 121.649C25.8206 120.416 25.1028 120.686 25.1028 122.652C25.1028 123.653 24.8438 125.147 24.5272 125.972C24.1207 127.031 24.5083 127.472 25.8469 127.472C27.1072 127.472 27.9539 126.628 28.3741 124.954ZM719.271 118.463C719.271 116.205 718.834 115.144 717.904 115.144C715.962 115.144 715.325 116.576 716.026 119.367C716.953 123.064 719.271 122.418 719.271 118.463ZM29.6674 116.321C29.8797 114.126 29.5698 113.247 28.5835 113.247C27.0668 113.247 26.0512 115.208 26.0512 118.136C26.0512 121.471 29.3286 119.827 29.6674 116.321ZM719.271 110.876C719.271 108.189 718.91 107.557 717.374 107.557C715.839 107.557 715.478 108.189 715.478 110.876C715.478 113.563 715.839 114.195 717.374 114.195C718.91 114.195 719.271 113.563 719.271 110.876ZM30.7927 110.48C30.7927 109.479 31.0518 107.985 31.3684 107.16C31.7749 106.101 31.3873 105.66 30.0487 105.66C27.719 105.66 26.2029 110.261 28.1299 111.483C30.075 112.716 30.7927 112.446 30.7927 110.48ZM719.271 103.831C719.271 102.826 718.631 101.362 717.848 100.58C717.066 99.7977 716.426 98.487 716.426 97.6674C716.426 96.6438 715.535 96.1771 713.581 96.1771C711.368 96.1771 710.736 96.5986 710.736 98.0738C710.736 99.4647 711.368 99.9704 713.107 99.9704C715.109 99.9704 715.478 100.413 715.478 102.815C715.478 105.028 715.899 105.66 717.374 105.66C718.615 105.66 719.271 105.028 719.271 103.831ZM32.1138 102.264C33.1664 99.5207 32.7102 98.0738 30.7927 98.0738C29.3176 98.0738 28.8961 98.706 28.8961 100.919C28.8961 103.985 31.0997 104.906 32.1138 102.264ZM692.718 97.1255C692.718 95.6503 692.086 95.2288 689.873 95.2288C686.21 95.2288 686.014 97.7943 689.636 98.3429C691.07 98.5602 692.351 98.8019 692.481 98.88C692.611 98.9581 692.718 98.1686 692.718 97.1255ZM701.253 97.1255C701.253 95.5901 700.621 95.2288 697.934 95.2288C695.247 95.2288 694.615 95.5901 694.615 97.1255C694.615 98.6609 695.247 99.0221 697.934 99.0221C700.621 99.0221 701.253 98.6609 701.253 97.1255ZM708.839 97.7025C708.839 95.8713 704.03 94.7618 703.017 96.3593C701.645 98.5221 702.115 99.0221 705.52 99.0221C707.723 99.0221 708.839 98.5785 708.839 97.7025ZM677.368 95.9401C677.621 94.6102 677.011 94.2805 674.295 94.2805C672.004 94.2805 670.907 94.7156 670.907 95.624C670.907 98.4108 676.841 98.7012 677.368 95.9401ZM685.131 96.1171C685.131 94.4816 684.627 94.2092 682.057 94.4575C680.032 94.6532 678.876 95.3213 678.669 96.4143C678.417 97.7438 679.028 98.0738 681.743 98.0738C684.534 98.0738 685.131 97.7288 685.131 96.1171ZM661.424 95.2288C661.424 93.6935 660.791 93.3322 658.104 93.3322C655.971 93.3322 654.785 93.7838 654.785 94.5966C654.785 96.4968 655.768 97.1255 658.737 97.1255C660.791 97.1255 661.424 96.6792 661.424 95.2288ZM668.834 95.4659C668.645 94.465 667.488 93.6873 665.92 93.5063C663.828 93.2648 663.32 93.5888 663.32 95.1658C663.32 96.7214 663.921 97.1255 666.235 97.1255C668.498 97.1255 669.079 96.7547 668.834 95.4659ZM33.6377 93.3882C33.6377 90.2347 31.949 88.6329 30.7012 90.6029C29.1302 93.0832 29.7073 96.1771 31.7411 96.1771C33.2078 96.1771 33.6377 95.545 33.6377 93.3882ZM637.716 93.7504C637.716 92.8209 636.654 92.3839 634.396 92.3839C630.329 92.3839 629.736 94.9311 633.685 95.4368C636.898 95.8482 637.716 95.5062 637.716 93.7504ZM645.302 94.2805C645.302 92.8054 644.67 92.3839 642.457 92.3839C640.244 92.3839 639.612 92.8054 639.612 94.2805C639.612 95.7557 640.244 96.1771 642.457 96.1771C644.67 96.1771 645.302 95.7557 645.302 94.2805ZM653.402 95.1657C654.202 93.8703 653.99 93.724 650.281 93.018C647.646 92.5164 647.199 92.7031 647.199 94.3043C647.199 95.7447 647.843 96.1771 649.988 96.1771C651.522 96.1771 653.058 95.722 653.402 95.1657ZM621.594 93.3322C621.594 91.8571 620.962 91.4356 618.749 91.4356C617.011 91.4356 615.904 91.9273 615.904 92.7C615.904 94.5274 616.869 95.2288 619.381 95.2288C620.962 95.2288 621.594 94.687 621.594 93.3322ZM629.181 93.3322C629.181 91.8571 628.549 91.4356 626.336 91.4356C624.123 91.4356 623.491 91.8571 623.491 93.3322C623.491 94.8074 624.123 95.2288 626.336 95.2288C628.549 95.2288 629.181 94.8074 629.181 93.3322ZM605.473 92.3839C605.473 90.9087 604.841 90.4873 602.628 90.4873C600.415 90.4873 599.783 90.9087 599.783 92.3839C599.783 93.8591 600.415 94.2805 602.628 94.2805C604.841 94.2805 605.473 93.8591 605.473 92.3839ZM614.008 92.9595C614.008 91.5095 612.015 90.4873 609.188 90.4873C608.002 90.4873 607.369 91.1464 607.369 92.3839C607.369 93.9193 608.002 94.2805 610.689 94.2805C612.893 94.2805 614.008 93.837 614.008 92.9595ZM581.765 91.4356C581.765 89.9604 581.133 89.539 578.92 89.539C575.787 89.539 574.883 91.9334 577.734 92.6785C581.013 93.5352 581.765 93.3032 581.765 91.4356ZM590.3 91.4356C590.3 89.9002 589.667 89.539 586.981 89.539C584.294 89.539 583.661 89.9002 583.661 91.4356C583.661 92.971 584.294 93.3322 586.981 93.3322C589.667 93.3322 590.3 92.971 590.3 91.4356ZM597.886 92.0174C597.886 91.2814 596.634 90.5187 595.041 90.285C593.477 90.0553 592.196 89.972 592.196 90.0998C592.196 90.2276 591.937 91.0072 591.621 91.8322C591.161 93.0292 591.736 93.3322 594.466 93.3322C596.75 93.3322 597.886 92.8953 597.886 92.0174ZM566.416 90.2502C566.668 88.9206 566.057 88.5906 563.342 88.5906C560.12 88.5906 558.885 90.0505 560.629 91.7952C561.895 93.061 566.096 91.9395 566.416 90.2502ZM574.178 90.4272C574.178 88.7917 573.674 88.5192 571.104 88.7676C569.079 88.9633 567.922 89.6314 567.715 90.7243C567.464 92.0539 568.075 92.3839 570.79 92.3839C573.581 92.3839 574.178 92.0389 574.178 90.4272ZM550.47 89.539C550.47 88.0036 549.838 87.6423 547.151 87.6423C544.464 87.6423 543.832 88.0036 543.832 89.539C543.832 91.0743 544.464 91.4356 547.151 91.4356C549.838 91.4356 550.47 91.0743 550.47 89.539ZM558.057 90.1146C558.057 88.7585 556.095 87.6423 553.712 87.6423C552.972 87.6423 552.367 88.4958 552.367 89.539C552.367 91.0141 552.999 91.4356 555.212 91.4356C557.011 91.4356 558.057 90.9502 558.057 90.1146ZM526.763 88.5906C526.763 87.0552 526.13 86.694 523.443 86.694C519.902 86.694 518.672 89.0204 521.784 89.8336C525.471 90.7971 526.763 90.4745 526.763 88.5906ZM534.349 88.5906C534.349 87.1155 533.717 86.694 531.504 86.694C529.291 86.694 528.659 87.1155 528.659 88.5906C528.659 90.0658 529.291 90.4873 531.504 90.4873C533.717 90.4873 534.349 90.0658 534.349 88.5906ZM542.41 89.0648C542.41 88.5432 541.023 87.9827 539.328 87.8193C536.992 87.5941 536.246 87.8956 536.246 89.0648C536.246 90.2339 536.992 90.5355 539.328 90.3103C541.023 90.1468 542.41 89.5863 542.41 89.0648ZM510.641 87.6423C510.641 86.1672 510.009 85.7457 507.796 85.7457C505.583 85.7457 504.951 86.1672 504.951 87.6423C504.951 89.1175 505.583 89.539 507.796 89.539C510.009 89.539 510.641 89.1175 510.641 87.6423ZM518.228 87.6423C518.228 86.1672 517.595 85.7457 515.383 85.7457C513.17 85.7457 512.538 86.1672 512.538 87.6423C512.538 89.1175 513.17 89.539 515.383 89.539C517.595 89.539 518.228 89.1175 518.228 87.6423ZM34.599 87.4052C34.6061 86.7533 34.8692 85.2597 35.1837 84.0861C35.6374 82.3932 35.3631 81.9524 33.8559 81.9524C32.4695 81.9524 31.8433 82.7224 31.538 84.8028C31.3079 86.3705 31.3306 87.8641 31.5884 88.1219C32.521 89.0545 34.5863 88.5629 34.599 87.4052ZM486.933 86.6339C486.933 85.0059 486.428 84.7271 483.924 84.9743C479.8 85.3817 479.379 87.4149 483.319 87.9003C485.046 88.113 486.566 88.3554 486.696 88.4389C486.827 88.5224 486.933 87.7101 486.933 86.6339ZM494.52 86.694C494.52 85.2189 493.888 84.7974 491.675 84.7974C489.462 84.7974 488.83 85.2189 488.83 86.694C488.83 88.1692 489.462 88.5906 491.675 88.5906C493.888 88.5906 494.52 88.1692 494.52 86.694ZM503.055 87.2788C503.055 86.0596 500.361 84.8405 497.602 84.8103C496.95 84.8033 496.416 85.6509 496.416 86.694C496.416 88.2294 497.049 88.5906 499.736 88.5906C501.929 88.5906 503.055 88.1458 503.055 87.2788ZM470.812 85.7457C470.812 84.2705 470.18 83.8491 467.967 83.8491C463.312 83.8491 464.429 87.3544 469.152 87.5675C470.205 87.615 470.812 86.9483 470.812 85.7457ZM479.171 85.9828C478.964 84.8898 477.807 84.2218 475.783 84.0261C473.213 83.7777 472.708 84.0502 472.708 85.6856C472.708 87.2973 473.306 87.6423 476.097 87.6423C478.812 87.6423 479.423 87.3123 479.171 85.9828ZM455.463 84.5603C455.715 83.2307 455.104 82.9007 452.389 82.9007C449.598 82.9007 449.001 83.2458 449.001 84.8574C449.001 86.4929 449.505 86.7654 452.075 86.517C454.099 86.3213 455.256 85.6533 455.463 84.5603ZM463.225 85.2896C463.225 83.7491 459.188 82.3536 457.589 83.3416C455.287 84.7642 456.621 86.694 459.906 86.694C462.205 86.694 463.225 86.2624 463.225 85.2896ZM431.257 83.849C431.682 82.2265 431.286 81.9524 428.523 81.9524C424.536 81.9524 424.031 84.4803 427.9 85.0665C429.335 85.2837 430.565 85.5254 430.635 85.6036C430.704 85.6817 430.984 84.8922 431.257 83.849ZM439.517 83.849C439.517 82.3137 438.885 81.9524 436.198 81.9524C433.511 81.9524 432.879 82.3137 432.879 83.849C432.879 85.3844 433.511 85.7457 436.198 85.7457C438.885 85.7457 439.517 85.3844 439.517 83.849ZM447.104 84.3232C447.104 83.5408 446.499 82.9007 445.759 82.9007C445.019 82.9007 443.739 82.6417 442.914 82.3251C441.839 81.9125 441.414 82.3151 441.414 83.7476C441.414 85.3355 441.998 85.7457 444.259 85.7457C446.156 85.7457 447.104 85.2715 447.104 84.3232ZM415.809 82.9007C415.809 81.3653 415.177 81.0041 412.49 81.0041C409.178 81.0041 407.752 83.1184 410.357 84.1693C413.304 85.3585 415.809 84.7756 415.809 82.9007ZM423.396 82.9007C423.396 81.4255 422.764 81.0041 420.551 81.0041C418.338 81.0041 417.706 81.4255 417.706 82.9007C417.706 84.3759 418.338 84.7974 420.551 84.7974C422.764 84.7974 423.396 84.3759 423.396 82.9007ZM399.688 81.9524C399.688 80.4928 399.056 80.0558 396.945 80.0558C395.436 80.0558 393.971 80.6542 393.691 81.3855C392.99 83.2124 393.845 83.849 397.001 83.849C399.056 83.849 399.688 83.4028 399.688 81.9524ZM407.275 82.528C407.275 81.1719 405.313 80.0558 402.93 80.0558C402.19 80.0558 401.585 80.9093 401.585 81.9524C401.585 83.4276 402.217 83.849 404.43 83.849C406.229 83.849 407.275 83.3636 407.275 82.528ZM375.98 80.944C375.98 79.316 375.475 79.0372 372.971 79.2845C369.378 79.6393 368.327 81.6331 371.421 82.2243C375.557 83.0146 375.98 82.8957 375.98 80.944ZM383.567 81.0041C383.567 79.5289 382.934 79.1075 380.722 79.1075C378.509 79.1075 377.877 79.5289 377.877 81.0041C377.877 82.4793 378.509 82.9007 380.722 82.9007C382.934 82.9007 383.567 82.4793 383.567 81.0041ZM392.102 81.4783C392.102 80.5932 391.206 80.0558 389.731 80.0558C388.427 80.0558 387.04 80.0333 386.649 80.0057C386.258 79.9781 385.799 80.6183 385.631 81.4282C385.399 82.5419 386.15 82.9007 388.713 82.9007C391.093 82.9007 392.102 82.4773 392.102 81.4783ZM359.859 80.0558C359.859 78.5806 359.227 78.1592 357.014 78.1592C355.275 78.1592 354.169 78.6509 354.169 79.4236C354.169 81.251 355.133 81.9524 357.646 81.9524C359.227 81.9524 359.859 81.4105 359.859 80.0558ZM368.218 80.2929C368.011 79.1999 366.854 78.5319 364.83 78.3362C362.26 78.0878 361.755 78.3603 361.755 79.9957C361.755 81.6074 362.353 81.9524 365.144 81.9524C367.859 81.9524 368.47 81.6224 368.218 80.2929ZM36.4681 76.4301C36.4786 74.8396 36.0211 74.3148 34.8231 74.5431C32.8121 74.9264 32.0309 79.0627 33.7668 80.1356C35.2771 81.069 36.4481 79.4628 36.4681 76.4301ZM344.51 78.8704C344.762 77.5408 344.151 77.2108 341.436 77.2108C338.645 77.2108 338.047 77.5559 338.047 79.1676C338.047 80.803 338.552 81.0755 341.122 80.8271C343.146 80.6314 344.303 79.9634 344.51 78.8704ZM352.272 79.5997C352.272 78.0592 348.235 76.6637 346.636 77.6517C344.334 79.0743 345.668 81.0041 348.953 81.0041C351.252 81.0041 352.272 80.5725 352.272 79.5997ZM320.029 78.1592C320.029 76.684 319.397 76.2625 317.184 76.2625C314.052 76.2625 313.148 78.657 315.999 79.4021C319.277 80.2588 320.029 80.0268 320.029 78.1592ZM328.564 78.1592C328.564 76.6238 327.932 76.2625 325.245 76.2625C322.558 76.2625 321.926 76.6238 321.926 78.1592C321.926 79.6945 322.558 80.0558 325.245 80.0558C327.932 80.0558 328.564 79.6945 328.564 78.1592ZM336.151 78.6333C336.151 77.685 335.203 77.2108 333.306 77.2108C331.409 77.2108 330.461 77.685 330.461 78.6333C330.461 79.5816 331.409 80.0558 333.306 80.0558C335.203 80.0558 336.151 79.5816 336.151 78.6333ZM304.856 77.2108C304.856 75.6755 304.224 75.3142 301.537 75.3142C299.404 75.3142 298.218 75.7658 298.218 76.5786C298.218 78.4788 299.2 79.1075 302.169 79.1075C304.224 79.1075 304.856 78.6612 304.856 77.2108ZM312.443 77.2108C312.443 75.7357 311.811 75.3142 309.598 75.3142C307.385 75.3142 306.753 75.7357 306.753 77.2108C306.753 78.686 307.385 79.1075 309.598 79.1075C311.811 79.1075 312.443 78.686 312.443 77.2108ZM288.735 76.2625C288.735 74.8029 288.103 74.3659 285.991 74.3659C284.483 74.3659 283.018 74.9643 282.738 75.6957C282.037 77.5226 282.892 78.1592 286.048 78.1592C288.103 78.1592 288.735 77.7129 288.735 76.2625ZM296.322 76.7367C296.322 75.9543 296.001 75.3084 295.61 75.3013C295.219 75.2943 293.939 75.031 292.765 74.7165C291.045 74.2553 290.632 74.5331 290.632 76.1519C290.632 77.75 291.212 78.1592 293.477 78.1592C295.373 78.1592 296.322 77.685 296.322 76.7367ZM265.027 75.2541C265.027 73.6261 264.522 73.3473 262.018 73.5946C258.665 73.9257 257.341 75.8589 259.996 76.547C263.783 77.5286 265.027 77.2088 265.027 75.2541ZM272.614 75.3142C272.614 73.8391 271.981 73.4176 269.769 73.4176C267.556 73.4176 266.924 73.8391 266.924 75.3142C266.924 76.7894 267.556 77.2109 269.769 77.2109C271.981 77.2109 272.614 76.7894 272.614 75.3142ZM281.148 75.7884C281.148 74.7949 280.147 74.3659 277.829 74.3659C275.511 74.3659 274.51 74.7949 274.51 75.7884C274.51 76.7819 275.511 77.2109 277.829 77.2109C280.147 77.2109 281.148 76.7819 281.148 75.7884ZM248.906 74.3659C248.906 72.8908 248.273 72.4693 246.061 72.4693C243.848 72.4693 243.216 72.8908 243.216 74.3659C243.216 75.8411 243.848 76.2626 246.061 76.2626C248.273 76.2626 248.906 75.8411 248.906 74.3659ZM257.441 74.9415C257.441 73.4916 255.448 72.4693 252.621 72.4693C251.435 72.4693 250.802 73.1285 250.802 74.3659C250.802 75.9013 251.434 76.2626 254.121 76.2626C256.326 76.2626 257.441 75.8191 257.441 74.9415ZM225.198 73.4176C225.198 71.9424 224.565 71.5209 222.353 71.5209C220.518 71.5209 219.508 72.0025 219.508 72.8775C219.508 74.0474 220.337 74.4316 224.486 75.1851C224.878 75.2561 225.198 74.4608 225.198 73.4176ZM233.092 73.9845C233.793 72.1576 232.937 71.5209 229.781 71.5209C227.727 71.5209 227.094 71.9672 227.094 73.4176C227.094 74.8772 227.727 75.3142 229.838 75.3142C231.347 75.3142 232.811 74.7159 233.092 73.9845ZM241.319 74.0023C241.319 73.2807 240.148 72.4665 238.717 72.1929C235.687 71.6137 234.681 72.051 234.681 73.9477C234.681 74.8772 235.742 75.3142 238 75.3142C240.194 75.3142 241.319 74.8694 241.319 74.0023ZM209.076 72.4693C209.076 70.9941 208.444 70.5726 206.231 70.5726C201.576 70.5726 202.694 74.0779 207.417 74.291C208.469 74.3385 209.076 73.6719 209.076 72.4693ZM217.611 72.4693C217.611 70.9339 216.979 70.5726 214.292 70.5726C211.605 70.5726 210.973 70.9339 210.973 72.4693C210.973 74.0046 211.605 74.3659 214.292 74.3659C216.979 74.3659 217.611 74.0046 217.611 72.4693ZM193.903 71.5209C193.903 69.9855 193.271 69.6243 190.584 69.6243C187.897 69.6243 187.265 69.9855 187.265 71.5209C187.265 73.0563 187.897 73.4176 190.584 73.4176C193.271 73.4176 193.903 73.0563 193.903 71.5209ZM201.49 72.0965C201.49 70.7404 199.528 69.6243 197.145 69.6243C196.405 69.6243 195.8 70.4778 195.8 71.5209C195.8 72.9961 196.432 73.4176 198.645 73.4176C200.444 73.4176 201.49 72.9321 201.49 72.0965ZM37.431 71.1243C37.431 70.3846 37.69 69.1044 38.0066 68.2794C38.4192 67.204 38.0165 66.7793 36.5841 66.7793C35.4852 66.7793 34.5802 67.0994 34.5731 67.4906C34.566 67.8818 34.3028 69.162 33.9883 70.3355C33.5271 72.0563 33.8049 72.4693 35.4237 72.4693C36.5277 72.4693 37.431 71.864 37.431 71.1243ZM170.028 70.2569C170.268 69.019 169.599 68.676 166.946 68.676C163.094 68.676 162.112 71.1153 165.691 71.7931C168.756 72.3737 169.681 72.0462 170.028 70.2569ZM177.782 70.5726C177.782 69.113 177.15 68.676 175.038 68.676C173.529 68.676 172.065 69.2744 171.785 70.0057C171.084 71.8326 171.939 72.4693 175.095 72.4693C177.15 72.4693 177.782 72.023 177.782 70.5726ZM185.368 71.0468C185.368 70.2644 184.763 69.6243 184.023 69.6243C183.284 69.6243 182.004 69.3652 181.179 69.0487C180.103 68.636 179.678 69.0387 179.678 70.4711C179.678 72.059 180.263 72.4693 182.523 72.4693C184.42 72.4693 185.368 71.9951 185.368 71.0468ZM154.074 69.6243C154.074 68.0889 153.442 67.7276 150.755 67.7276C148.621 67.7276 147.436 68.1792 147.436 68.9921C147.436 70.8923 148.418 71.5209 151.387 71.5209C153.442 71.5209 154.074 71.0746 154.074 69.6243ZM161.66 69.6243C161.66 68.1491 161.028 67.7276 158.816 67.7276C156.603 67.7276 155.971 68.1491 155.971 69.6243C155.971 71.0994 156.603 71.5209 158.816 71.5209C161.028 71.5209 161.66 71.0994 161.66 69.6243ZM137.953 68.676C137.953 67.2008 137.32 66.7793 135.108 66.7793C132.895 66.7793 132.263 67.2008 132.263 68.676C132.263 70.1511 132.895 70.5726 135.108 70.5726C137.32 70.5726 137.953 70.1511 137.953 68.676ZM146.052 69.5612C146.887 68.2105 146.419 67.8563 142.862 67.1448C140.233 66.6191 139.849 66.7992 139.849 68.5574C139.849 70.1553 140.427 70.5726 142.638 70.5726C144.172 70.5726 145.708 70.1175 146.052 69.5612ZM114.245 67.7276C114.245 66.2525 113.612 65.831 111.4 65.831C108.267 65.831 107.363 68.2255 110.214 68.9706C113.492 69.8273 114.245 69.5953 114.245 67.7276ZM122.139 68.2945C122.84 66.4676 121.984 65.831 118.828 65.831C116.773 65.831 116.141 66.2773 116.141 67.7276C116.141 69.1872 116.773 69.6243 118.885 69.6243C120.394 69.6243 121.858 69.0259 122.139 68.2945ZM130.366 68.2018C130.366 67.2084 129.365 66.7794 127.047 66.7794C124.729 66.7794 123.728 67.2084 123.728 68.2018C123.728 69.1953 124.729 69.6243 127.047 69.6243C129.365 69.6243 130.366 69.1953 130.366 68.2018ZM98.1233 66.7794C98.1233 65.3042 97.491 64.8827 95.2783 64.8827C93.0656 64.8827 92.4333 65.3042 92.4333 66.7794C92.4333 68.2545 93.0656 68.676 95.2783 68.676C97.491 68.676 98.1233 68.2545 98.1233 66.7794ZM106.483 67.0164C106.276 65.9234 105.119 65.2554 103.094 65.0597C100.525 64.8114 100.02 65.0838 100.02 66.7193C100.02 68.331 100.617 68.676 103.409 68.676C106.123 68.676 106.735 68.346 106.483 67.0164ZM82.9502 65.831C82.9502 64.2957 82.318 63.9344 79.6311 63.9344C76.9442 63.9344 76.312 64.2957 76.312 65.831C76.312 67.3664 76.9442 67.7277 79.6311 67.7277C82.318 67.7277 82.9502 67.3664 82.9502 65.831ZM90.5367 66.3052C90.5367 65.5228 90.2167 64.8769 89.8255 64.8698C89.4343 64.8628 88.1541 64.5995 86.9805 64.285C85.2597 63.8239 84.8468 64.1016 84.8468 65.7204C84.8468 67.3185 85.4268 67.7277 87.6918 67.7277C89.5884 67.7277 90.5367 67.2535 90.5367 66.3052ZM59.0638 64.6347C59.3176 63.3171 58.701 62.9861 55.9927 62.9861C53.6902 62.9861 52.604 63.4197 52.604 64.339C52.604 66.9992 58.556 67.2716 59.0638 64.6347ZM66.8288 64.8226C66.8288 63.1872 66.3241 62.9147 63.7545 63.1631C61.7298 63.3588 60.5729 64.0268 60.3659 65.1198C60.114 66.4494 60.7253 66.7794 63.4401 66.7794C66.2313 66.7794 66.8288 66.4343 66.8288 64.8226ZM74.4153 65.3569C74.4153 64.4086 73.467 63.9344 71.5704 63.9344C69.6737 63.9344 68.7254 64.4086 68.7254 65.3569C68.7254 66.3052 69.6737 66.7794 71.5704 66.7794C73.467 66.7794 74.4153 66.3052 74.4153 65.3569ZM38.694 63.5338C38.9787 62.7919 40.1645 62.0451 41.329 61.8743C44.449 61.4165 44.5476 59.5381 41.5044 58.5321C37.1698 57.0993 35.5343 57.9488 35.5343 61.6332C35.5343 64.9701 37.6536 66.2449 38.694 63.5338ZM51.1024 63.3245C51.8516 61.3723 51.7101 61.2426 48.0304 60.5066C45.615 60.0236 45.0175 60.2157 45.0175 61.4756C45.0175 62.34 45.9777 63.4331 47.1512 63.9048C50.1586 65.1137 50.4312 65.0736 51.1024 63.3245Z" fill="white"/>
</g>
<defs>
<clipPath id="clip0_33_100">
<rect width="742.003" height="180.125" fill="white"/>
</clipPath>
</defs>
</svg>
