<svg xmlns="http://www.w3.org/2000/svg" width="664" height="368" viewBox="0 0 664 368" fill="none">
  <path d="M18.1966 3.77954L9.14403 9.47931L3.77954 16.1849L37.9782 352.136L44.0132 359.848L54.4069 363.536L652.548 254.905L653.519 244.711L659.92 242.577L657.194 216.499L651.622 215.906L650.556 208.675L658.972 206.423L656.127 180.7L652.452 180.344H649.726L649.252 173.943L656.838 172.165L657.549 171.335L656.127 146.679L646.881 146.205L647 139.804L656.483 135.773L657.075 110.406L648.066 110.524L648.303 103.412L658.616 96.5367L657.194 71.4063L649.133 71.6434L649.607 58.9597L652.452 57.7743L651.978 27.9023L648.778 20.9085L649.607 14.9815L646.644 10.1214L428.582 7.92087L18.1966 3.77954Z" stroke="#7FFF00" stroke-width="7.55906" stroke-linejoin="round"/>
</svg>