<svg width="323" height="328" viewBox="0 0 323 328" fill="none" xmlns="http://www.w3.org/2000/svg">
<g clip-path="url(#clip0_134_374)">
<path d="M150.336 15.4649H146.699L144.678 15.8692L136.999 13.8477L132.15 15.4649L94.1617 51.4489L90.5246 56.3007L95.7782 59.9396L85.2709 68.8345L75.5718 60.3439H72.3387L56.1736 76.1121V81.3682L64.6603 88.2416L63.852 89.8588L55.3653 98.7538L52.1323 96.3279L46.8786 95.9236L8.4863 133.121L6.06152 141.611L27.4804 161.827L39.2001 173.552L37.5836 175.978L49.7075 184.064L50.9199 183.256L58.1942 190.533L67.0851 180.425L141.849 241.073L158.822 256.841L151.144 265.331L150.336 270.183L179.837 291.612L184.687 285.951L186.707 287.164L179.029 296.059L180.645 301.315L199.235 313.849L209.743 311.828L248.943 266.544L248.539 260.48L243.285 257.649L244.498 254.011L256.622 247.946L266.321 256.032H268.341L283.698 236.221L282.486 232.178L270.766 222.878L278.849 211.153L284.507 218.027L319.262 174.361L320.474 168.296L313.2 155.358L308.754 143.633L299.459 135.951L299.055 105.627L297.843 99.9667L286.123 88.2416L212.572 26.7857L206.51 25.9771L181.454 5.76137L172.159 2.52686L158.822 6.97432L150.336 15.4649Z" fill="white" stroke="#7FFF00" stroke-width="9.44882" stroke-linejoin="round"/>
<path d="M2.02051 142.824L4.44529 152.528L15.3568 162.635L9.69897 174.765L3.63703 188.107L10.5072 193.363L16.165 186.894L50.516 216.005L46.4747 222.07L47.6871 225.304L76.3803 248.35L83.2505 258.054L94.9703 264.118L122.855 287.569L127.301 287.164L133.363 279.482L137 281.908L136.596 288.377L158.014 306.167H162.864L168.926 310.615L161.247 318.701L166.905 325.979L177.009 315.062L183.475 313.445L186.539 288.977L150.603 268.341L158.414 255.587L67.275 181.644L62.1313 192.508L38.1932 171.683L2.02051 142.824Z" fill="white" stroke="#7FFF00" stroke-width="7.55906" stroke-linejoin="round"/>
<path d="M183.07 80.9639L193.174 65.1956L196.407 66.4085L206.106 52.2575V47.0014L211.763 42.554L228.737 55.0877L213.784 69.643L187.92 106.031L205.702 120.182L233.586 82.1768L242.477 72.8776V66.4085L262.684 82.1768L259.451 89.8588L235.203 122.608L214.188 107.244" stroke="#FF6600" stroke-width="7.55906" stroke-linejoin="round"/>
<path d="M183.878 81.7726L198.427 92.6891" stroke="#FF6600" stroke-width="7.55906" stroke-linejoin="round"/>
<path d="M211.763 43.7669L219.846 36.085" stroke="#FF6600" stroke-width="7.55906" stroke-linejoin="round"/>
<path d="M141.445 103.201L200.448 42.1497H208.126L213.38 35.6807L219.038 36.085L233.182 48.2144L242.477 37.7022L245.71 39.7238L248.135 38.1066L259.046 48.2144L260.259 52.6619L250.964 62.3654L266.725 75.3035L266.321 79.751L262.279 85.8157L271.979 92.689L272.383 101.988L217.017 165.87L141.445 103.201Z" stroke="#FF6600" stroke-width="7.55906" stroke-linejoin="round"/>
</g>
<defs>
<clipPath id="clip0_134_374">
<rect width="323" height="328" fill="white"/>
</clipPath>
</defs>
</svg>
